<mxfile host="65bd71144e">
    <diagram id="vAWq5sf-e6V7DPrejmnv" name="Ideal Scenario">
        <mxGraphModel dx="1027" dy="472" grid="1" gridSize="10" guides="1" tooltips="1" connect="1" arrows="1" fold="1" page="1" pageScale="1" pageWidth="850" pageHeight="1100" math="0" shadow="0">
            <root>
                <mxCell id="0"/>
                <mxCell id="1" parent="0"/>
                <mxCell id="3" value="element 1" style="rounded=0;whiteSpace=wrap;html=1;" parent="1" vertex="1">
                    <mxGeometry x="50" y="80" width="120" height="60" as="geometry"/>
                </mxCell>
                <mxCell id="12" value="0.99" style="edgeStyle=none;html=1;entryX=0;entryY=0.5;entryDx=0;entryDy=0;" parent="1" source="4" target="8" edge="1">
                    <mxGeometry relative="1" as="geometry"/>
                </mxCell>
                <mxCell id="13" value="0.4" style="edgeStyle=none;html=1;entryX=0;entryY=0.5;entryDx=0;entryDy=0;" parent="1" source="4" target="7" edge="1">
                    <mxGeometry relative="1" as="geometry"/>
                </mxCell>
                <mxCell id="14" value="0.5" style="edgeStyle=none;html=1;entryX=0;entryY=0.75;entryDx=0;entryDy=0;" parent="1" source="4" target="9" edge="1">
                    <mxGeometry relative="1" as="geometry"/>
                </mxCell>
                <mxCell id="4" value="element 2 (target element)" style="rounded=0;whiteSpace=wrap;html=1;" parent="1" vertex="1">
                    <mxGeometry x="50" y="160" width="120" height="60" as="geometry"/>
                </mxCell>
                <mxCell id="5" value="element 3" style="rounded=0;whiteSpace=wrap;html=1;" parent="1" vertex="1">
                    <mxGeometry x="50" y="250" width="120" height="60" as="geometry"/>
                </mxCell>
                <mxCell id="6" value="baseline" style="text;html=1;strokeColor=none;fillColor=none;align=center;verticalAlign=middle;whiteSpace=wrap;rounded=0;" parent="1" vertex="1">
                    <mxGeometry x="70" y="10" width="60" height="30" as="geometry"/>
                </mxCell>
                <mxCell id="7" value="element 1" style="rounded=0;whiteSpace=wrap;html=1;" parent="1" vertex="1">
                    <mxGeometry x="290" y="80" width="120" height="60" as="geometry"/>
                </mxCell>
                <mxCell id="8" value="element 2 (target element)" style="rounded=0;whiteSpace=wrap;html=1;" parent="1" vertex="1">
                    <mxGeometry x="290" y="160" width="120" height="60" as="geometry"/>
                </mxCell>
                <mxCell id="9" value="element 3" style="rounded=0;whiteSpace=wrap;html=1;" parent="1" vertex="1">
                    <mxGeometry x="290" y="250" width="120" height="60" as="geometry"/>
                </mxCell>
                <mxCell id="10" value="baseline" style="text;html=1;strokeColor=none;fillColor=none;align=center;verticalAlign=middle;whiteSpace=wrap;rounded=0;" parent="1" vertex="1">
                    <mxGeometry x="310" y="10" width="60" height="30" as="geometry"/>
                </mxCell>
                <mxCell id="15" value="find a group where we get one and only optimum match" style="text;html=1;strokeColor=none;fillColor=none;align=center;verticalAlign=middle;whiteSpace=wrap;rounded=0;" parent="1" vertex="1">
                    <mxGeometry x="130" y="360" width="200" height="30" as="geometry"/>
                </mxCell>
            </root>
        </mxGraphModel>
    </diagram>
    <diagram id="TMpFhDGqIFmZMKHcXKkz" name="Element need to identifed by neighbor">
        <mxGraphModel dx="1239" dy="472" grid="1" gridSize="10" guides="1" tooltips="1" connect="1" arrows="1" fold="1" page="1" pageScale="1" pageWidth="850" pageHeight="1100" math="0" shadow="0">
            <root>
                <mxCell id="xXfNS2o7ispm-7tHs2Z7-0"/>
                <mxCell id="xXfNS2o7ispm-7tHs2Z7-1" parent="xXfNS2o7ispm-7tHs2Z7-0"/>
                <mxCell id="BFLBw5Vjfws4kJpodu7N-10" value="" style="rounded=0;whiteSpace=wrap;html=1;dashed=1;" parent="xXfNS2o7ispm-7tHs2Z7-1" vertex="1">
                    <mxGeometry x="1750" y="160" width="210" height="280" as="geometry"/>
                </mxCell>
                <mxCell id="BFLBw5Vjfws4kJpodu7N-4" value="" style="rounded=0;whiteSpace=wrap;html=1;dashed=1;" parent="xXfNS2o7ispm-7tHs2Z7-1" vertex="1">
                    <mxGeometry x="1080" y="240" width="210" height="185" as="geometry"/>
                </mxCell>
                <mxCell id="BFLBw5Vjfws4kJpodu7N-3" value="" style="rounded=0;whiteSpace=wrap;html=1;dashed=1;" parent="xXfNS2o7ispm-7tHs2Z7-1" vertex="1">
                    <mxGeometry x="1070" y="150" width="210" height="185" as="geometry"/>
                </mxCell>
                <mxCell id="BFLBw5Vjfws4kJpodu7N-2" value="" style="rounded=0;whiteSpace=wrap;html=1;dashed=1;" parent="xXfNS2o7ispm-7tHs2Z7-1" vertex="1">
                    <mxGeometry x="1050" y="50" width="190" height="185" as="geometry"/>
                </mxCell>
                <mxCell id="BFLBw5Vjfws4kJpodu7N-1" value="0.7" style="edgeStyle=none;html=1;" parent="xXfNS2o7ispm-7tHs2Z7-1" source="BFLBw5Vjfws4kJpodu7N-0" edge="1">
                    <mxGeometry relative="1" as="geometry">
                        <mxPoint x="1060" y="147.5" as="targetPoint"/>
                    </mxGeometry>
                </mxCell>
                <mxCell id="BFLBw5Vjfws4kJpodu7N-5" value="0.7" style="edgeStyle=none;html=1;entryX=0;entryY=0.75;entryDx=0;entryDy=0;" parent="xXfNS2o7ispm-7tHs2Z7-1" source="BFLBw5Vjfws4kJpodu7N-0" target="BFLBw5Vjfws4kJpodu7N-3" edge="1">
                    <mxGeometry relative="1" as="geometry"/>
                </mxCell>
                <mxCell id="BFLBw5Vjfws4kJpodu7N-8" value="0.4" style="edgeStyle=none;html=1;entryX=0;entryY=0.75;entryDx=0;entryDy=0;" parent="xXfNS2o7ispm-7tHs2Z7-1" source="BFLBw5Vjfws4kJpodu7N-0" target="BFLBw5Vjfws4kJpodu7N-4" edge="1">
                    <mxGeometry relative="1" as="geometry"/>
                </mxCell>
                <mxCell id="BFLBw5Vjfws4kJpodu7N-0" value="" style="rounded=0;whiteSpace=wrap;html=1;dashed=1;" parent="xXfNS2o7ispm-7tHs2Z7-1" vertex="1">
                    <mxGeometry x="800" y="55" width="190" height="185" as="geometry"/>
                </mxCell>
                <mxCell id="q1_tsf0scMUC1LLhRAIF-1" value="0.3" style="edgeStyle=none;html=1;exitX=1;exitY=0.5;exitDx=0;exitDy=0;" parent="xXfNS2o7ispm-7tHs2Z7-1" source="q1_tsf0scMUC1LLhRAIF-5" target="q1_tsf0scMUC1LLhRAIF-9" edge="1">
                    <mxGeometry relative="1" as="geometry">
                        <mxPoint x="320" y="190" as="sourcePoint"/>
                        <mxPoint x="400" y="190" as="targetPoint"/>
                    </mxGeometry>
                </mxCell>
                <mxCell id="q1_tsf0scMUC1LLhRAIF-4" value="element 1" style="rounded=0;whiteSpace=wrap;html=1;" parent="xXfNS2o7ispm-7tHs2Z7-1" vertex="1">
                    <mxGeometry x="180" y="80" width="120" height="60" as="geometry"/>
                </mxCell>
                <mxCell id="q1_tsf0scMUC1LLhRAIF-15" value="0.5" style="edgeStyle=none;html=1;" parent="xXfNS2o7ispm-7tHs2Z7-1" source="q1_tsf0scMUC1LLhRAIF-5" edge="1">
                    <mxGeometry relative="1" as="geometry">
                        <mxPoint x="410" y="120" as="targetPoint"/>
                    </mxGeometry>
                </mxCell>
                <mxCell id="q1_tsf0scMUC1LLhRAIF-16" value="0.6" style="edgeStyle=none;html=1;entryX=0;entryY=0.5;entryDx=0;entryDy=0;" parent="xXfNS2o7ispm-7tHs2Z7-1" source="q1_tsf0scMUC1LLhRAIF-5" target="q1_tsf0scMUC1LLhRAIF-10" edge="1">
                    <mxGeometry relative="1" as="geometry"/>
                </mxCell>
                <mxCell id="q1_tsf0scMUC1LLhRAIF-17" value="0.7" style="edgeStyle=none;html=1;entryX=0;entryY=0.5;entryDx=0;entryDy=0;" parent="xXfNS2o7ispm-7tHs2Z7-1" source="q1_tsf0scMUC1LLhRAIF-5" target="q1_tsf0scMUC1LLhRAIF-14" edge="1">
                    <mxGeometry relative="1" as="geometry"/>
                </mxCell>
                <mxCell id="q1_tsf0scMUC1LLhRAIF-5" value="element 2 (target element)" style="rounded=0;whiteSpace=wrap;html=1;" parent="xXfNS2o7ispm-7tHs2Z7-1" vertex="1">
                    <mxGeometry x="180" y="160" width="120" height="60" as="geometry"/>
                </mxCell>
                <mxCell id="q1_tsf0scMUC1LLhRAIF-6" value="element 3" style="rounded=0;whiteSpace=wrap;html=1;" parent="xXfNS2o7ispm-7tHs2Z7-1" vertex="1">
                    <mxGeometry x="180" y="250" width="120" height="60" as="geometry"/>
                </mxCell>
                <mxCell id="q1_tsf0scMUC1LLhRAIF-7" value="baseline" style="text;html=1;strokeColor=none;fillColor=none;align=center;verticalAlign=middle;whiteSpace=wrap;rounded=0;" parent="xXfNS2o7ispm-7tHs2Z7-1" vertex="1">
                    <mxGeometry x="200" y="10" width="60" height="30" as="geometry"/>
                </mxCell>
                <mxCell id="q1_tsf0scMUC1LLhRAIF-8" value="element 1" style="rounded=0;whiteSpace=wrap;html=1;" parent="xXfNS2o7ispm-7tHs2Z7-1" vertex="1">
                    <mxGeometry x="420" y="80" width="120" height="60" as="geometry"/>
                </mxCell>
                <mxCell id="q1_tsf0scMUC1LLhRAIF-9" value="element 2 - modify greatly&amp;nbsp; (target element)" style="rounded=0;whiteSpace=wrap;html=1;" parent="xXfNS2o7ispm-7tHs2Z7-1" vertex="1">
                    <mxGeometry x="420" y="160" width="120" height="60" as="geometry"/>
                </mxCell>
                <mxCell id="q1_tsf0scMUC1LLhRAIF-10" value="element 3" style="rounded=0;whiteSpace=wrap;html=1;" parent="xXfNS2o7ispm-7tHs2Z7-1" vertex="1">
                    <mxGeometry x="420" y="250" width="120" height="60" as="geometry"/>
                </mxCell>
                <mxCell id="q1_tsf0scMUC1LLhRAIF-11" value="baseline" style="text;html=1;strokeColor=none;fillColor=none;align=center;verticalAlign=middle;whiteSpace=wrap;rounded=0;" parent="xXfNS2o7ispm-7tHs2Z7-1" vertex="1">
                    <mxGeometry x="440" y="10" width="60" height="30" as="geometry"/>
                </mxCell>
                <mxCell id="q1_tsf0scMUC1LLhRAIF-12" value="With target element cannot find a good match, and then, we will combine target elements with neraest element and test things out" style="text;html=1;strokeColor=none;fillColor=none;align=center;verticalAlign=middle;whiteSpace=wrap;rounded=0;" parent="xXfNS2o7ispm-7tHs2Z7-1" vertex="1">
                    <mxGeometry x="270" y="450" width="200" height="30" as="geometry"/>
                </mxCell>
                <mxCell id="q1_tsf0scMUC1LLhRAIF-13" value="element 4" style="rounded=0;whiteSpace=wrap;html=1;dashed=1;" parent="xXfNS2o7ispm-7tHs2Z7-1" vertex="1">
                    <mxGeometry x="180" y="345" width="120" height="60" as="geometry"/>
                </mxCell>
                <mxCell id="q1_tsf0scMUC1LLhRAIF-14" value="element 4" style="rounded=0;whiteSpace=wrap;html=1;dashed=1;" parent="xXfNS2o7ispm-7tHs2Z7-1" vertex="1">
                    <mxGeometry x="425" y="345" width="120" height="60" as="geometry"/>
                </mxCell>
                <mxCell id="q1_tsf0scMUC1LLhRAIF-19" value="element 1 (hello)" style="rounded=0;whiteSpace=wrap;html=1;" parent="xXfNS2o7ispm-7tHs2Z7-1" vertex="1">
                    <mxGeometry x="840" y="80" width="120" height="60" as="geometry"/>
                </mxCell>
                <mxCell id="q1_tsf0scMUC1LLhRAIF-23" value="element 2 (target element)" style="rounded=0;whiteSpace=wrap;html=1;" parent="xXfNS2o7ispm-7tHs2Z7-1" vertex="1">
                    <mxGeometry x="840" y="160" width="120" height="60" as="geometry"/>
                </mxCell>
                <mxCell id="q1_tsf0scMUC1LLhRAIF-24" value="element 3 (hello)" style="rounded=0;whiteSpace=wrap;html=1;" parent="xXfNS2o7ispm-7tHs2Z7-1" vertex="1">
                    <mxGeometry x="840" y="250" width="120" height="60" as="geometry"/>
                </mxCell>
                <mxCell id="q1_tsf0scMUC1LLhRAIF-25" value="baseline" style="text;html=1;strokeColor=none;fillColor=none;align=center;verticalAlign=middle;whiteSpace=wrap;rounded=0;" parent="xXfNS2o7ispm-7tHs2Z7-1" vertex="1">
                    <mxGeometry x="860" y="10" width="60" height="30" as="geometry"/>
                </mxCell>
                <mxCell id="q1_tsf0scMUC1LLhRAIF-26" value="element 1 (hello)" style="rounded=0;whiteSpace=wrap;html=1;" parent="xXfNS2o7ispm-7tHs2Z7-1" vertex="1">
                    <mxGeometry x="1080" y="80" width="120" height="60" as="geometry"/>
                </mxCell>
                <mxCell id="q1_tsf0scMUC1LLhRAIF-27" value="element 2 - modify greatly&amp;nbsp; (target element)" style="rounded=0;whiteSpace=wrap;html=1;" parent="xXfNS2o7ispm-7tHs2Z7-1" vertex="1">
                    <mxGeometry x="1080" y="160" width="120" height="60" as="geometry"/>
                </mxCell>
                <mxCell id="q1_tsf0scMUC1LLhRAIF-28" value="element 3 (hello)" style="rounded=0;whiteSpace=wrap;html=1;" parent="xXfNS2o7ispm-7tHs2Z7-1" vertex="1">
                    <mxGeometry x="1080" y="250" width="120" height="60" as="geometry"/>
                </mxCell>
                <mxCell id="q1_tsf0scMUC1LLhRAIF-29" value="baseline" style="text;html=1;strokeColor=none;fillColor=none;align=center;verticalAlign=middle;whiteSpace=wrap;rounded=0;" parent="xXfNS2o7ispm-7tHs2Z7-1" vertex="1">
                    <mxGeometry x="1100" y="10" width="60" height="30" as="geometry"/>
                </mxCell>
                <mxCell id="q1_tsf0scMUC1LLhRAIF-30" value="element 4" style="rounded=0;whiteSpace=wrap;html=1;dashed=1;" parent="xXfNS2o7ispm-7tHs2Z7-1" vertex="1">
                    <mxGeometry x="840" y="345" width="120" height="60" as="geometry"/>
                </mxCell>
                <mxCell id="q1_tsf0scMUC1LLhRAIF-31" value="element 4" style="rounded=0;whiteSpace=wrap;html=1;dashed=1;" parent="xXfNS2o7ispm-7tHs2Z7-1" vertex="1">
                    <mxGeometry x="1085" y="345" width="120" height="60" as="geometry"/>
                </mxCell>
                <mxCell id="BFLBw5Vjfws4kJpodu7N-9" value="Due to similar input, it's tough for us to figure out what to use. because there are two similar input in nearb element. We have to expand to scope futher" style="text;html=1;strokeColor=none;fillColor=none;align=center;verticalAlign=middle;whiteSpace=wrap;rounded=0;" parent="xXfNS2o7ispm-7tHs2Z7-1" vertex="1">
                    <mxGeometry x="910" y="450" width="200" height="30" as="geometry"/>
                </mxCell>
                <mxCell id="BFLBw5Vjfws4kJpodu7N-12" value="" style="rounded=0;whiteSpace=wrap;html=1;dashed=1;" parent="xXfNS2o7ispm-7tHs2Z7-1" vertex="1">
                    <mxGeometry x="1720" y="65" width="190" height="275" as="geometry"/>
                </mxCell>
                <mxCell id="BFLBw5Vjfws4kJpodu7N-14" value="0.7" style="edgeStyle=none;html=1;entryX=0;entryY=0.5;entryDx=0;entryDy=0;" parent="xXfNS2o7ispm-7tHs2Z7-1" source="BFLBw5Vjfws4kJpodu7N-16" target="BFLBw5Vjfws4kJpodu7N-12" edge="1">
                    <mxGeometry relative="1" as="geometry">
                        <mxPoint x="1740" y="303.75" as="targetPoint"/>
                    </mxGeometry>
                </mxCell>
                <mxCell id="BFLBw5Vjfws4kJpodu7N-15" value="0.4" style="edgeStyle=none;html=1;entryX=0;entryY=0.5;entryDx=0;entryDy=0;" parent="xXfNS2o7ispm-7tHs2Z7-1" source="BFLBw5Vjfws4kJpodu7N-16" target="BFLBw5Vjfws4kJpodu7N-24" edge="1">
                    <mxGeometry relative="1" as="geometry"/>
                </mxCell>
                <mxCell id="BFLBw5Vjfws4kJpodu7N-16" value="" style="rounded=0;whiteSpace=wrap;html=1;dashed=1;" parent="xXfNS2o7ispm-7tHs2Z7-1" vertex="1">
                    <mxGeometry x="1470" y="70" width="190" height="280" as="geometry"/>
                </mxCell>
                <mxCell id="BFLBw5Vjfws4kJpodu7N-17" value="element 1 (hello)" style="rounded=0;whiteSpace=wrap;html=1;" parent="xXfNS2o7ispm-7tHs2Z7-1" vertex="1">
                    <mxGeometry x="1510" y="95" width="120" height="60" as="geometry"/>
                </mxCell>
                <mxCell id="BFLBw5Vjfws4kJpodu7N-18" value="element 2 (target element)" style="rounded=0;whiteSpace=wrap;html=1;" parent="xXfNS2o7ispm-7tHs2Z7-1" vertex="1">
                    <mxGeometry x="1510" y="175" width="120" height="60" as="geometry"/>
                </mxCell>
                <mxCell id="BFLBw5Vjfws4kJpodu7N-19" value="element 3 (hello)" style="rounded=0;whiteSpace=wrap;html=1;" parent="xXfNS2o7ispm-7tHs2Z7-1" vertex="1">
                    <mxGeometry x="1510" y="265" width="120" height="60" as="geometry"/>
                </mxCell>
                <mxCell id="BFLBw5Vjfws4kJpodu7N-20" value="element 1 (hello)" style="rounded=0;whiteSpace=wrap;html=1;" parent="xXfNS2o7ispm-7tHs2Z7-1" vertex="1">
                    <mxGeometry x="1750" y="95" width="120" height="60" as="geometry"/>
                </mxCell>
                <mxCell id="BFLBw5Vjfws4kJpodu7N-21" value="element 2 - modify greatly&amp;nbsp; (target element)" style="rounded=0;whiteSpace=wrap;html=1;" parent="xXfNS2o7ispm-7tHs2Z7-1" vertex="1">
                    <mxGeometry x="1750" y="175" width="120" height="60" as="geometry"/>
                </mxCell>
                <mxCell id="BFLBw5Vjfws4kJpodu7N-22" value="element 3 (hello)" style="rounded=0;whiteSpace=wrap;html=1;" parent="xXfNS2o7ispm-7tHs2Z7-1" vertex="1">
                    <mxGeometry x="1750" y="265" width="120" height="60" as="geometry"/>
                </mxCell>
                <mxCell id="BFLBw5Vjfws4kJpodu7N-23" value="element 4" style="rounded=0;whiteSpace=wrap;html=1;dashed=1;" parent="xXfNS2o7ispm-7tHs2Z7-1" vertex="1">
                    <mxGeometry x="1510" y="360" width="120" height="60" as="geometry"/>
                </mxCell>
                <mxCell id="BFLBw5Vjfws4kJpodu7N-24" value="element 4" style="rounded=0;whiteSpace=wrap;html=1;dashed=1;" parent="xXfNS2o7ispm-7tHs2Z7-1" vertex="1">
                    <mxGeometry x="1755" y="360" width="120" height="60" as="geometry"/>
                </mxCell>
                <mxCell id="BFLBw5Vjfws4kJpodu7N-25" value="expanded scope give us a resonable range. Wit that, we will proceed" style="text;html=1;strokeColor=none;fillColor=none;align=center;verticalAlign=middle;whiteSpace=wrap;rounded=0;" parent="xXfNS2o7ispm-7tHs2Z7-1" vertex="1">
                    <mxGeometry x="1580" y="465" width="200" height="30" as="geometry"/>
                </mxCell>
                <mxCell id="BFLBw5Vjfws4kJpodu7N-26" value="challenge: at which point should we sttop??" style="text;html=1;strokeColor=#A50040;fillColor=#d80073;align=center;verticalAlign=middle;whiteSpace=wrap;rounded=0;dashed=1;fontColor=#ffffff;" parent="xXfNS2o7ispm-7tHs2Z7-1" vertex="1">
                    <mxGeometry x="1390" y="535" width="300" height="30" as="geometry"/>
                </mxCell>
                <mxCell id="BFLBw5Vjfws4kJpodu7N-27" value="challenge: what if element 1 or 3 are missing in new tree? How can we identify them?" style="text;html=1;strokeColor=#A50040;fillColor=#d80073;align=center;verticalAlign=middle;whiteSpace=wrap;rounded=0;dashed=1;fontColor=#ffffff;" parent="xXfNS2o7ispm-7tHs2Z7-1" vertex="1">
                    <mxGeometry x="1380" y="590" width="300" height="30" as="geometry"/>
                </mxCell>
                <mxCell id="BFLBw5Vjfws4kJpodu7N-36" value="0.99" style="edgeStyle=none;html=1;" parent="xXfNS2o7ispm-7tHs2Z7-1" source="BFLBw5Vjfws4kJpodu7N-29" target="BFLBw5Vjfws4kJpodu7N-32" edge="1">
                    <mxGeometry relative="1" as="geometry"/>
                </mxCell>
                <mxCell id="BFLBw5Vjfws4kJpodu7N-29" value="element 1 (hello)" style="rounded=0;whiteSpace=wrap;html=1;" parent="xXfNS2o7ispm-7tHs2Z7-1" vertex="1">
                    <mxGeometry x="2260" y="90" width="120" height="60" as="geometry"/>
                </mxCell>
                <mxCell id="BFLBw5Vjfws4kJpodu7N-30" value="element 2 (target element)" style="rounded=0;whiteSpace=wrap;html=1;" parent="xXfNS2o7ispm-7tHs2Z7-1" vertex="1">
                    <mxGeometry x="2260" y="185" width="120" height="60" as="geometry"/>
                </mxCell>
                <mxCell id="BFLBw5Vjfws4kJpodu7N-37" value="0.99" style="edgeStyle=none;html=1;entryX=0;entryY=0.5;entryDx=0;entryDy=0;" parent="xXfNS2o7ispm-7tHs2Z7-1" source="BFLBw5Vjfws4kJpodu7N-31" target="BFLBw5Vjfws4kJpodu7N-34" edge="1">
                    <mxGeometry relative="1" as="geometry"/>
                </mxCell>
                <mxCell id="BFLBw5Vjfws4kJpodu7N-31" value="element 3 (hello)" style="rounded=0;whiteSpace=wrap;html=1;" parent="xXfNS2o7ispm-7tHs2Z7-1" vertex="1">
                    <mxGeometry x="2260" y="275" width="120" height="60" as="geometry"/>
                </mxCell>
                <mxCell id="BFLBw5Vjfws4kJpodu7N-32" value="element 1 (hello)" style="rounded=0;whiteSpace=wrap;html=1;" parent="xXfNS2o7ispm-7tHs2Z7-1" vertex="1">
                    <mxGeometry x="2560" y="85" width="120" height="60" as="geometry"/>
                </mxCell>
                <mxCell id="BFLBw5Vjfws4kJpodu7N-33" value="element 2 - modify greatly&amp;nbsp; (target element)" style="rounded=0;whiteSpace=wrap;html=1;" parent="xXfNS2o7ispm-7tHs2Z7-1" vertex="1">
                    <mxGeometry x="2560" y="180" width="120" height="60" as="geometry"/>
                </mxCell>
                <mxCell id="BFLBw5Vjfws4kJpodu7N-34" value="element 3 (hello)" style="rounded=0;whiteSpace=wrap;html=1;" parent="xXfNS2o7ispm-7tHs2Z7-1" vertex="1">
                    <mxGeometry x="2560" y="270" width="120" height="60" as="geometry"/>
                </mxCell>
                <mxCell id="BFLBw5Vjfws4kJpodu7N-35" value="within the range, get similarity of all elements, rule all out similarity none-target element to get a refined list" style="text;html=1;strokeColor=none;fillColor=none;align=center;verticalAlign=middle;whiteSpace=wrap;rounded=0;" parent="xXfNS2o7ispm-7tHs2Z7-1" vertex="1">
                    <mxGeometry x="2320" y="435" width="200" height="30" as="geometry"/>
                </mxCell>
                <mxCell id="BFLBw5Vjfws4kJpodu7N-44" value="edge case consideration:" style="text;html=1;strokeColor=none;fillColor=none;align=center;verticalAlign=middle;whiteSpace=wrap;rounded=0;" parent="xXfNS2o7ispm-7tHs2Z7-1" vertex="1">
                    <mxGeometry x="2910" y="425" width="200" height="30" as="geometry"/>
                </mxCell>
                <mxCell id="BFLBw5Vjfws4kJpodu7N-45" value="0.99" style="edgeStyle=none;html=1;" parent="xXfNS2o7ispm-7tHs2Z7-1" source="BFLBw5Vjfws4kJpodu7N-46" target="BFLBw5Vjfws4kJpodu7N-50" edge="1">
                    <mxGeometry relative="1" as="geometry"/>
                </mxCell>
                <mxCell id="BFLBw5Vjfws4kJpodu7N-46" value="element 1 (hello)" style="rounded=0;whiteSpace=wrap;html=1;" parent="xXfNS2o7ispm-7tHs2Z7-1" vertex="1">
                    <mxGeometry x="2790" y="5" width="120" height="60" as="geometry"/>
                </mxCell>
                <mxCell id="BFLBw5Vjfws4kJpodu7N-47" value="element 2 (target element)" style="rounded=0;whiteSpace=wrap;html=1;" parent="xXfNS2o7ispm-7tHs2Z7-1" vertex="1">
                    <mxGeometry x="2790" y="177.5" width="120" height="60" as="geometry"/>
                </mxCell>
                <mxCell id="BFLBw5Vjfws4kJpodu7N-48" value="0.99" style="edgeStyle=none;html=1;entryX=0;entryY=0.5;entryDx=0;entryDy=0;" parent="xXfNS2o7ispm-7tHs2Z7-1" source="BFLBw5Vjfws4kJpodu7N-49" target="BFLBw5Vjfws4kJpodu7N-52" edge="1">
                    <mxGeometry relative="1" as="geometry"/>
                </mxCell>
                <mxCell id="BFLBw5Vjfws4kJpodu7N-49" value="element 3 (hello)" style="rounded=0;whiteSpace=wrap;html=1;" parent="xXfNS2o7ispm-7tHs2Z7-1" vertex="1">
                    <mxGeometry x="2790" y="267.5" width="120" height="60" as="geometry"/>
                </mxCell>
                <mxCell id="BFLBw5Vjfws4kJpodu7N-50" value="element 1 (hello)" style="rounded=0;whiteSpace=wrap;html=1;" parent="xXfNS2o7ispm-7tHs2Z7-1" vertex="1">
                    <mxGeometry x="3090" width="120" height="60" as="geometry"/>
                </mxCell>
                <mxCell id="BFLBw5Vjfws4kJpodu7N-51" value="element 2 - modify greatly&amp;nbsp; (target element)" style="rounded=0;whiteSpace=wrap;html=1;" parent="xXfNS2o7ispm-7tHs2Z7-1" vertex="1">
                    <mxGeometry x="3090" y="172.5" width="120" height="60" as="geometry"/>
                </mxCell>
                <mxCell id="BFLBw5Vjfws4kJpodu7N-52" value="element 3 (hello)" style="rounded=0;whiteSpace=wrap;html=1;" parent="xXfNS2o7ispm-7tHs2Z7-1" vertex="1">
                    <mxGeometry x="3090" y="262.5" width="120" height="60" as="geometry"/>
                </mxCell>
                <mxCell id="BFLBw5Vjfws4kJpodu7N-53" value="element 4 (kelly)" style="rounded=0;whiteSpace=wrap;html=1;" parent="xXfNS2o7ispm-7tHs2Z7-1" vertex="1">
                    <mxGeometry x="2780" y="90" width="120" height="60" as="geometry"/>
                </mxCell>
                <mxCell id="BFLBw5Vjfws4kJpodu7N-54" value="element 5 (tim)" style="rounded=0;whiteSpace=wrap;html=1;" parent="xXfNS2o7ispm-7tHs2Z7-1" vertex="1">
                    <mxGeometry x="3090" y="85" width="120" height="60" as="geometry"/>
                </mxCell>
            </root>
        </mxGraphModel>
    </diagram>
    <diagram id="EjiZRw3J2gi2pQs-Zrsz" name="Add neighbor Element in new page">
        <mxGraphModel dx="1239" dy="472" grid="1" gridSize="10" guides="1" tooltips="1" connect="1" arrows="1" fold="1" page="1" pageScale="1" pageWidth="850" pageHeight="1100" math="0" shadow="0">
            <root>
                <mxCell id="M58z4vBvSVD7qxfMuFyl-0"/>
                <mxCell id="M58z4vBvSVD7qxfMuFyl-1" parent="M58z4vBvSVD7qxfMuFyl-0"/>
                <mxCell id="XVKA3P-GIAwSo514_md6-1" value="" style="rounded=0;whiteSpace=wrap;html=1;dashed=1;" parent="M58z4vBvSVD7qxfMuFyl-1" vertex="1">
                    <mxGeometry x="395" y="150" width="190" height="360" as="geometry"/>
                </mxCell>
                <mxCell id="XVKA3P-GIAwSo514_md6-2" style="edgeStyle=none;html=1;entryX=0.026;entryY=0.417;entryDx=0;entryDy=0;entryPerimeter=0;" parent="M58z4vBvSVD7qxfMuFyl-1" source="XVKA3P-GIAwSo514_md6-0" target="XVKA3P-GIAwSo514_md6-1" edge="1">
                    <mxGeometry relative="1" as="geometry"/>
                </mxCell>
                <mxCell id="XVKA3P-GIAwSo514_md6-0" value="" style="rounded=0;whiteSpace=wrap;html=1;dashed=1;" parent="M58z4vBvSVD7qxfMuFyl-1" vertex="1">
                    <mxGeometry x="145" y="55" width="190" height="375" as="geometry"/>
                </mxCell>
                <mxCell id="DGUIjV8Elki4nAOnb_Ka-1" value="element 1" style="rounded=0;whiteSpace=wrap;html=1;" parent="M58z4vBvSVD7qxfMuFyl-1" vertex="1">
                    <mxGeometry x="180" y="80" width="120" height="60" as="geometry"/>
                </mxCell>
                <mxCell id="DGUIjV8Elki4nAOnb_Ka-5" value="element 2 (target element)" style="rounded=0;whiteSpace=wrap;html=1;" parent="M58z4vBvSVD7qxfMuFyl-1" vertex="1">
                    <mxGeometry x="180" y="160" width="120" height="60" as="geometry"/>
                </mxCell>
                <mxCell id="DGUIjV8Elki4nAOnb_Ka-6" value="element 3" style="rounded=0;whiteSpace=wrap;html=1;" parent="M58z4vBvSVD7qxfMuFyl-1" vertex="1">
                    <mxGeometry x="180" y="250" width="120" height="60" as="geometry"/>
                </mxCell>
                <mxCell id="DGUIjV8Elki4nAOnb_Ka-7" value="baseline" style="text;html=1;strokeColor=none;fillColor=none;align=center;verticalAlign=middle;whiteSpace=wrap;rounded=0;" parent="M58z4vBvSVD7qxfMuFyl-1" vertex="1">
                    <mxGeometry x="200" y="10" width="60" height="30" as="geometry"/>
                </mxCell>
                <mxCell id="DGUIjV8Elki4nAOnb_Ka-11" value="new page" style="text;html=1;strokeColor=none;fillColor=none;align=center;verticalAlign=middle;whiteSpace=wrap;rounded=0;" parent="M58z4vBvSVD7qxfMuFyl-1" vertex="1">
                    <mxGeometry x="440" y="10" width="60" height="30" as="geometry"/>
                </mxCell>
                <mxCell id="DGUIjV8Elki4nAOnb_Ka-13" value="element 4" style="rounded=0;whiteSpace=wrap;html=1;dashed=1;" parent="M58z4vBvSVD7qxfMuFyl-1" vertex="1">
                    <mxGeometry x="180" y="345" width="120" height="60" as="geometry"/>
                </mxCell>
                <mxCell id="DGUIjV8Elki4nAOnb_Ka-15" value="element 1" style="rounded=0;whiteSpace=wrap;html=1;" parent="M58z4vBvSVD7qxfMuFyl-1" vertex="1">
                    <mxGeometry x="430" y="80" width="120" height="60" as="geometry"/>
                </mxCell>
                <mxCell id="DGUIjV8Elki4nAOnb_Ka-16" value="element 2 (target element)" style="rounded=0;whiteSpace=wrap;html=1;" parent="M58z4vBvSVD7qxfMuFyl-1" vertex="1">
                    <mxGeometry x="430" y="240" width="120" height="60" as="geometry"/>
                </mxCell>
                <mxCell id="DGUIjV8Elki4nAOnb_Ka-17" value="element 3" style="rounded=0;whiteSpace=wrap;html=1;" parent="M58z4vBvSVD7qxfMuFyl-1" vertex="1">
                    <mxGeometry x="430" y="330" width="120" height="60" as="geometry"/>
                </mxCell>
                <mxCell id="DGUIjV8Elki4nAOnb_Ka-18" value="element 4" style="rounded=0;whiteSpace=wrap;html=1;dashed=1;" parent="M58z4vBvSVD7qxfMuFyl-1" vertex="1">
                    <mxGeometry x="430" y="425" width="120" height="60" as="geometry"/>
                </mxCell>
                <mxCell id="DGUIjV8Elki4nAOnb_Ka-19" value="element 5" style="rounded=0;whiteSpace=wrap;html=1;" parent="M58z4vBvSVD7qxfMuFyl-1" vertex="1">
                    <mxGeometry x="430" y="160" width="120" height="60" as="geometry"/>
                </mxCell>
                <mxCell id="XVKA3P-GIAwSo514_md6-4" value="element 1" style="rounded=0;whiteSpace=wrap;html=1;" parent="M58z4vBvSVD7qxfMuFyl-1" vertex="1">
                    <mxGeometry x="1095" y="105" width="120" height="60" as="geometry"/>
                </mxCell>
                <mxCell id="XVKA3P-GIAwSo514_md6-5" value="element 2 (target element)" style="rounded=0;whiteSpace=wrap;html=1;" parent="M58z4vBvSVD7qxfMuFyl-1" vertex="1">
                    <mxGeometry x="1095" y="185" width="120" height="60" as="geometry"/>
                </mxCell>
                <mxCell id="XVKA3P-GIAwSo514_md6-6" value="element 3" style="rounded=0;whiteSpace=wrap;html=1;" parent="M58z4vBvSVD7qxfMuFyl-1" vertex="1">
                    <mxGeometry x="1095" y="275" width="120" height="60" as="geometry"/>
                </mxCell>
                <mxCell id="XVKA3P-GIAwSo514_md6-7" value="element 4" style="rounded=0;whiteSpace=wrap;html=1;dashed=1;" parent="M58z4vBvSVD7qxfMuFyl-1" vertex="1">
                    <mxGeometry x="1095" y="370" width="120" height="60" as="geometry"/>
                </mxCell>
                <mxCell id="XVKA3P-GIAwSo514_md6-8" value="baseline" style="text;html=1;strokeColor=none;fillColor=none;align=center;verticalAlign=middle;whiteSpace=wrap;rounded=0;" parent="M58z4vBvSVD7qxfMuFyl-1" vertex="1">
                    <mxGeometry x="1155" y="20" width="60" height="30" as="geometry"/>
                </mxCell>
                <mxCell id="XVKA3P-GIAwSo514_md6-10" value="element 2 (target element)" style="rounded=0;whiteSpace=wrap;html=1;" parent="M58z4vBvSVD7qxfMuFyl-1" vertex="1">
                    <mxGeometry x="1465" y="177.5" width="120" height="60" as="geometry"/>
                </mxCell>
                <mxCell id="XVKA3P-GIAwSo514_md6-11" value="element 3" style="rounded=0;whiteSpace=wrap;html=1;" parent="M58z4vBvSVD7qxfMuFyl-1" vertex="1">
                    <mxGeometry x="1465" y="267.5" width="120" height="60" as="geometry"/>
                </mxCell>
                <mxCell id="XVKA3P-GIAwSo514_md6-12" value="element 4" style="rounded=0;whiteSpace=wrap;html=1;dashed=1;" parent="M58z4vBvSVD7qxfMuFyl-1" vertex="1">
                    <mxGeometry x="1465" y="362.5" width="120" height="60" as="geometry"/>
                </mxCell>
                <mxCell id="XVKA3P-GIAwSo514_md6-13" value="element 5" style="rounded=0;whiteSpace=wrap;html=1;" parent="M58z4vBvSVD7qxfMuFyl-1" vertex="1">
                    <mxGeometry x="1465" y="97.5" width="120" height="60" as="geometry"/>
                </mxCell>
                <mxCell id="hh8PxdN2EGC9finwDHj_-0" value="expand scope to the point that is appropriate" style="text;html=1;strokeColor=none;fillColor=none;align=center;verticalAlign=middle;whiteSpace=wrap;rounded=0;" parent="M58z4vBvSVD7qxfMuFyl-1" vertex="1">
                    <mxGeometry x="250" y="580" width="200" height="30" as="geometry"/>
                </mxCell>
                <mxCell id="hh8PxdN2EGC9finwDHj_-1" value="use similarity check to get rid of similar paris" style="text;html=1;strokeColor=none;fillColor=none;align=center;verticalAlign=middle;whiteSpace=wrap;rounded=0;" parent="M58z4vBvSVD7qxfMuFyl-1" vertex="1">
                    <mxGeometry x="1240" y="510" width="200" height="30" as="geometry"/>
                </mxCell>
                <mxCell id="hh8PxdN2EGC9finwDHj_-2" value="element 1" style="rounded=0;whiteSpace=wrap;html=1;" parent="M58z4vBvSVD7qxfMuFyl-1" vertex="1">
                    <mxGeometry x="1950" y="105" width="120" height="60" as="geometry"/>
                </mxCell>
                <mxCell id="hh8PxdN2EGC9finwDHj_-3" value="element 2 (target element)" style="rounded=0;whiteSpace=wrap;html=1;" parent="M58z4vBvSVD7qxfMuFyl-1" vertex="1">
                    <mxGeometry x="1950" y="185" width="120" height="60" as="geometry"/>
                </mxCell>
                <mxCell id="hh8PxdN2EGC9finwDHj_-4" value="element 2 (target element)" style="rounded=0;whiteSpace=wrap;html=1;" parent="M58z4vBvSVD7qxfMuFyl-1" vertex="1">
                    <mxGeometry x="2320" y="177.5" width="120" height="60" as="geometry"/>
                </mxCell>
                <mxCell id="hh8PxdN2EGC9finwDHj_-5" value="element 5" style="rounded=0;whiteSpace=wrap;html=1;" parent="M58z4vBvSVD7qxfMuFyl-1" vertex="1">
                    <mxGeometry x="2320" y="97.5" width="120" height="60" as="geometry"/>
                </mxCell>
                <mxCell id="hh8PxdN2EGC9finwDHj_-6" value="based on the index check, this method is working" style="text;html=1;strokeColor=none;fillColor=none;align=center;verticalAlign=middle;whiteSpace=wrap;rounded=0;" parent="M58z4vBvSVD7qxfMuFyl-1" vertex="1">
                    <mxGeometry x="2125" y="330" width="200" height="30" as="geometry"/>
                </mxCell>
                <mxCell id="hh8PxdN2EGC9finwDHj_-7" value="element 1" style="rounded=0;whiteSpace=wrap;html=1;" parent="M58z4vBvSVD7qxfMuFyl-1" vertex="1">
                    <mxGeometry x="2600" y="115" width="120" height="60" as="geometry"/>
                </mxCell>
                <mxCell id="hh8PxdN2EGC9finwDHj_-8" value="element 2 (target element)" style="rounded=0;whiteSpace=wrap;html=1;" parent="M58z4vBvSVD7qxfMuFyl-1" vertex="1">
                    <mxGeometry x="2600" y="195" width="120" height="60" as="geometry"/>
                </mxCell>
                <mxCell id="hh8PxdN2EGC9finwDHj_-9" value="element 2 (target element)" style="rounded=0;whiteSpace=wrap;html=1;" parent="M58z4vBvSVD7qxfMuFyl-1" vertex="1">
                    <mxGeometry x="2970" y="187.5" width="120" height="60" as="geometry"/>
                </mxCell>
                <mxCell id="hh8PxdN2EGC9finwDHj_-10" value="element 5" style="rounded=0;whiteSpace=wrap;html=1;" parent="M58z4vBvSVD7qxfMuFyl-1" vertex="1">
                    <mxGeometry x="2970" y="107.5" width="120" height="60" as="geometry"/>
                </mxCell>
                <mxCell id="hh8PxdN2EGC9finwDHj_-11" value="when the location is closed to each other, and the meaning and syntax does not make sense. There is little we can do. It's one of the case we have to give up." style="text;html=1;align=center;verticalAlign=middle;whiteSpace=wrap;rounded=0;" parent="M58z4vBvSVD7qxfMuFyl-1" vertex="1">
                    <mxGeometry x="2775" y="300" width="200" height="100" as="geometry"/>
                </mxCell>
                <mxCell id="hh8PxdN2EGC9finwDHj_-12" value="extended scenario - What if index is not the same?" style="text;html=1;strokeColor=#6F0000;fillColor=#a20025;align=center;verticalAlign=middle;whiteSpace=wrap;rounded=0;fontColor=#ffffff;" parent="M58z4vBvSVD7qxfMuFyl-1" vertex="1">
                    <mxGeometry x="2770" y="50" width="200" height="30" as="geometry"/>
                </mxCell>
            </root>
        </mxGraphModel>
    </diagram>
    <diagram id="lKGIAhneWfFzk-wuBCTr" name="Add non-neighbor Element in new page">
        <mxGraphModel dx="1239" dy="1572" grid="1" gridSize="10" guides="1" tooltips="1" connect="1" arrows="1" fold="1" page="1" pageScale="1" pageWidth="850" pageHeight="1100" math="0" shadow="0">
            <root>
                <mxCell id="n69lvujE0PTRM3WjqRuP-0"/>
                <mxCell id="n69lvujE0PTRM3WjqRuP-1" parent="n69lvujE0PTRM3WjqRuP-0"/>
                <mxCell id="2_TCfYf8XNbaHGVU_MSA-0" value="" style="rounded=0;whiteSpace=wrap;html=1;dashed=1;" parent="n69lvujE0PTRM3WjqRuP-1" vertex="1">
                    <mxGeometry x="405" y="55" width="190" height="360" as="geometry"/>
                </mxCell>
                <mxCell id="2_TCfYf8XNbaHGVU_MSA-1" style="edgeStyle=none;html=1;entryX=0.026;entryY=0.417;entryDx=0;entryDy=0;entryPerimeter=0;" parent="n69lvujE0PTRM3WjqRuP-1" source="2_TCfYf8XNbaHGVU_MSA-2" target="2_TCfYf8XNbaHGVU_MSA-0" edge="1">
                    <mxGeometry relative="1" as="geometry"/>
                </mxCell>
                <mxCell id="2_TCfYf8XNbaHGVU_MSA-2" value="" style="rounded=0;whiteSpace=wrap;html=1;dashed=1;" parent="n69lvujE0PTRM3WjqRuP-1" vertex="1">
                    <mxGeometry x="145" y="55" width="190" height="375" as="geometry"/>
                </mxCell>
                <mxCell id="2_TCfYf8XNbaHGVU_MSA-3" value="element 1" style="rounded=0;whiteSpace=wrap;html=1;" parent="n69lvujE0PTRM3WjqRuP-1" vertex="1">
                    <mxGeometry x="180" y="80" width="120" height="60" as="geometry"/>
                </mxCell>
                <mxCell id="2_TCfYf8XNbaHGVU_MSA-4" value="element 2 (target element)" style="rounded=0;whiteSpace=wrap;html=1;" parent="n69lvujE0PTRM3WjqRuP-1" vertex="1">
                    <mxGeometry x="180" y="160" width="120" height="60" as="geometry"/>
                </mxCell>
                <mxCell id="2_TCfYf8XNbaHGVU_MSA-5" value="element 3" style="rounded=0;whiteSpace=wrap;html=1;" parent="n69lvujE0PTRM3WjqRuP-1" vertex="1">
                    <mxGeometry x="180" y="250" width="120" height="60" as="geometry"/>
                </mxCell>
                <mxCell id="2_TCfYf8XNbaHGVU_MSA-6" value="baseline" style="text;html=1;strokeColor=none;fillColor=none;align=center;verticalAlign=middle;whiteSpace=wrap;rounded=0;" parent="n69lvujE0PTRM3WjqRuP-1" vertex="1">
                    <mxGeometry x="200" y="10" width="60" height="30" as="geometry"/>
                </mxCell>
                <mxCell id="2_TCfYf8XNbaHGVU_MSA-7" value="new page" style="text;html=1;strokeColor=none;fillColor=none;align=center;verticalAlign=middle;whiteSpace=wrap;rounded=0;" parent="n69lvujE0PTRM3WjqRuP-1" vertex="1">
                    <mxGeometry x="440" y="10" width="60" height="30" as="geometry"/>
                </mxCell>
                <mxCell id="2_TCfYf8XNbaHGVU_MSA-8" value="element 4" style="rounded=0;whiteSpace=wrap;html=1;dashed=1;" parent="n69lvujE0PTRM3WjqRuP-1" vertex="1">
                    <mxGeometry x="180" y="345" width="120" height="60" as="geometry"/>
                </mxCell>
                <mxCell id="2_TCfYf8XNbaHGVU_MSA-9" value="element 1" style="rounded=0;whiteSpace=wrap;html=1;" parent="n69lvujE0PTRM3WjqRuP-1" vertex="1">
                    <mxGeometry x="430" y="80" width="120" height="60" as="geometry"/>
                </mxCell>
                <mxCell id="2_TCfYf8XNbaHGVU_MSA-10" value="element 2 (target element)" style="rounded=0;whiteSpace=wrap;html=1;" parent="n69lvujE0PTRM3WjqRuP-1" vertex="1">
                    <mxGeometry x="440" y="180" width="120" height="60" as="geometry"/>
                </mxCell>
                <mxCell id="2_TCfYf8XNbaHGVU_MSA-11" value="element 3" style="rounded=0;whiteSpace=wrap;html=1;" parent="n69lvujE0PTRM3WjqRuP-1" vertex="1">
                    <mxGeometry x="440" y="260" width="120" height="60" as="geometry"/>
                </mxCell>
                <mxCell id="2_TCfYf8XNbaHGVU_MSA-12" value="element 4" style="rounded=0;whiteSpace=wrap;html=1;dashed=1;" parent="n69lvujE0PTRM3WjqRuP-1" vertex="1">
                    <mxGeometry x="440" y="430" width="120" height="60" as="geometry"/>
                </mxCell>
                <mxCell id="2_TCfYf8XNbaHGVU_MSA-13" value="element 5" style="rounded=0;whiteSpace=wrap;html=1;" parent="n69lvujE0PTRM3WjqRuP-1" vertex="1">
                    <mxGeometry x="440" y="340" width="120" height="60" as="geometry"/>
                </mxCell>
                <mxCell id="2_TCfYf8XNbaHGVU_MSA-17" value="element 1" style="rounded=0;whiteSpace=wrap;html=1;" parent="n69lvujE0PTRM3WjqRuP-1" vertex="1">
                    <mxGeometry x="970" y="55" width="120" height="60" as="geometry"/>
                </mxCell>
                <mxCell id="2_TCfYf8XNbaHGVU_MSA-18" value="element 2 (target element)" style="rounded=0;whiteSpace=wrap;html=1;" parent="n69lvujE0PTRM3WjqRuP-1" vertex="1">
                    <mxGeometry x="970" y="135" width="120" height="60" as="geometry"/>
                </mxCell>
                <mxCell id="2_TCfYf8XNbaHGVU_MSA-19" value="element 3" style="rounded=0;whiteSpace=wrap;html=1;" parent="n69lvujE0PTRM3WjqRuP-1" vertex="1">
                    <mxGeometry x="970" y="225" width="120" height="60" as="geometry"/>
                </mxCell>
                <mxCell id="2_TCfYf8XNbaHGVU_MSA-20" value="element 4" style="rounded=0;whiteSpace=wrap;html=1;dashed=1;" parent="n69lvujE0PTRM3WjqRuP-1" vertex="1">
                    <mxGeometry x="970" y="320" width="120" height="60" as="geometry"/>
                </mxCell>
                <mxCell id="2_TCfYf8XNbaHGVU_MSA-21" value="element 2 (target element)" style="rounded=0;whiteSpace=wrap;html=1;" parent="n69lvujE0PTRM3WjqRuP-1" vertex="1">
                    <mxGeometry x="1230" y="155" width="120" height="60" as="geometry"/>
                </mxCell>
                <mxCell id="2_TCfYf8XNbaHGVU_MSA-22" value="element 3" style="rounded=0;whiteSpace=wrap;html=1;" parent="n69lvujE0PTRM3WjqRuP-1" vertex="1">
                    <mxGeometry x="1230" y="235" width="120" height="60" as="geometry"/>
                </mxCell>
                <mxCell id="2_TCfYf8XNbaHGVU_MSA-23" value="element 4" style="rounded=0;whiteSpace=wrap;html=1;dashed=1;" parent="n69lvujE0PTRM3WjqRuP-1" vertex="1">
                    <mxGeometry x="1230" y="405" width="120" height="60" as="geometry"/>
                </mxCell>
                <mxCell id="2_TCfYf8XNbaHGVU_MSA-24" value="element 5" style="rounded=0;whiteSpace=wrap;html=1;" parent="n69lvujE0PTRM3WjqRuP-1" vertex="1">
                    <mxGeometry x="1230" y="315" width="120" height="60" as="geometry"/>
                </mxCell>
                <mxCell id="2_TCfYf8XNbaHGVU_MSA-25" value="use similarity check to rule out similar value within pairs" style="text;html=1;strokeColor=none;fillColor=none;align=center;verticalAlign=middle;whiteSpace=wrap;rounded=0;" parent="n69lvujE0PTRM3WjqRuP-1" vertex="1">
                    <mxGeometry x="1070" y="510" width="290" height="30" as="geometry"/>
                </mxCell>
                <mxCell id="2_TCfYf8XNbaHGVU_MSA-26" value="element 1" style="rounded=0;whiteSpace=wrap;html=1;" parent="n69lvujE0PTRM3WjqRuP-1" vertex="1">
                    <mxGeometry x="1640" y="75" width="120" height="60" as="geometry"/>
                </mxCell>
                <mxCell id="2_TCfYf8XNbaHGVU_MSA-27" value="element 2 (target element)" style="rounded=0;whiteSpace=wrap;html=1;" parent="n69lvujE0PTRM3WjqRuP-1" vertex="1">
                    <mxGeometry x="1640" y="155" width="120" height="60" as="geometry"/>
                </mxCell>
                <mxCell id="2_TCfYf8XNbaHGVU_MSA-30" value="element 2 (target element)" style="rounded=0;whiteSpace=wrap;html=1;" parent="n69lvujE0PTRM3WjqRuP-1" vertex="1">
                    <mxGeometry x="1900" y="175" width="120" height="60" as="geometry"/>
                </mxCell>
                <mxCell id="2_TCfYf8XNbaHGVU_MSA-33" value="element 5" style="rounded=0;whiteSpace=wrap;html=1;" parent="n69lvujE0PTRM3WjqRuP-1" vertex="1">
                    <mxGeometry x="1900" y="335" width="120" height="60" as="geometry"/>
                </mxCell>
                <mxCell id="2_TCfYf8XNbaHGVU_MSA-34" value="check outside similarity region. Our goal is to find a region where element 2 is included." style="text;html=1;strokeColor=none;fillColor=none;align=center;verticalAlign=middle;whiteSpace=wrap;rounded=0;" parent="n69lvujE0PTRM3WjqRuP-1" vertex="1">
                    <mxGeometry x="1690" y="480" width="290" height="30" as="geometry"/>
                </mxCell>
                <mxCell id="2_TCfYf8XNbaHGVU_MSA-35" value="element 1" style="rounded=0;whiteSpace=wrap;html=1;" parent="n69lvujE0PTRM3WjqRuP-1" vertex="1">
                    <mxGeometry x="2450" y="-380" width="120" height="60" as="geometry"/>
                </mxCell>
                <mxCell id="2_TCfYf8XNbaHGVU_MSA-36" value="element 2 (target element)" style="rounded=0;whiteSpace=wrap;html=1;" parent="n69lvujE0PTRM3WjqRuP-1" vertex="1">
                    <mxGeometry x="2450" y="-300" width="120" height="60" as="geometry"/>
                </mxCell>
                <mxCell id="2_TCfYf8XNbaHGVU_MSA-37" value="element 2 (target element)" style="rounded=0;whiteSpace=wrap;html=1;" parent="n69lvujE0PTRM3WjqRuP-1" vertex="1">
                    <mxGeometry x="2710" y="-280" width="120" height="60" as="geometry"/>
                </mxCell>
                <mxCell id="2_TCfYf8XNbaHGVU_MSA-38" value="element 5" style="rounded=0;whiteSpace=wrap;html=1;" parent="n69lvujE0PTRM3WjqRuP-1" vertex="1">
                    <mxGeometry x="2710" y="-120" width="120" height="60" as="geometry"/>
                </mxCell>
                <mxCell id="2_TCfYf8XNbaHGVU_MSA-39" value="cannot rule out element 1&amp;nbsp;" style="shape=flexArrow;endArrow=classic;html=1;" parent="n69lvujE0PTRM3WjqRuP-1" edge="1">
                    <mxGeometry width="50" height="50" relative="1" as="geometry">
                        <mxPoint x="1990" y="160" as="sourcePoint"/>
                        <mxPoint x="2480" y="-190" as="targetPoint"/>
                    </mxGeometry>
                </mxCell>
                <mxCell id="2_TCfYf8XNbaHGVU_MSA-41" value="element 2 (target element)" style="rounded=0;whiteSpace=wrap;html=1;fillColor=#60a917;fontColor=#ffffff;strokeColor=#2D7600;" parent="n69lvujE0PTRM3WjqRuP-1" vertex="1">
                    <mxGeometry x="2430" y="530" width="120" height="60" as="geometry"/>
                </mxCell>
                <mxCell id="2_TCfYf8XNbaHGVU_MSA-42" value="element 2 (target element)" style="rounded=0;whiteSpace=wrap;html=1;fillColor=#60a917;fontColor=#ffffff;strokeColor=#2D7600;" parent="n69lvujE0PTRM3WjqRuP-1" vertex="1">
                    <mxGeometry x="2690" y="550" width="120" height="60" as="geometry"/>
                </mxCell>
                <mxCell id="2_TCfYf8XNbaHGVU_MSA-43" value="element 5" style="rounded=0;whiteSpace=wrap;html=1;" parent="n69lvujE0PTRM3WjqRuP-1" vertex="1">
                    <mxGeometry x="2690" y="710" width="120" height="60" as="geometry"/>
                </mxCell>
                <mxCell id="2_TCfYf8XNbaHGVU_MSA-44" value="cannot rule out similarity 1" style="shape=flexArrow;endArrow=classic;html=1;" parent="n69lvujE0PTRM3WjqRuP-1" edge="1">
                    <mxGeometry width="50" height="50" relative="1" as="geometry">
                        <mxPoint x="2000" y="170" as="sourcePoint"/>
                        <mxPoint x="2390" y="535.0506036931819" as="targetPoint"/>
                    </mxGeometry>
                </mxCell>
                <mxCell id="2_TCfYf8XNbaHGVU_MSA-45" value="Can rule out element1, based on that, conduct region check to find out element in between 1 and 3&lt;br&gt;" style="text;align=left;verticalAlign=middle;spacingLeft=4;spacingRight=4;overflow=hidden;points=[[0,0.5],[1,0.5]];portConstraint=eastwest;rotatable=0;dashed=1;textDirection=ltr;whiteSpace=wrap;html=1;" parent="n69lvujE0PTRM3WjqRuP-1" vertex="1">
                    <mxGeometry x="2620" y="830" width="260" height="80" as="geometry"/>
                </mxCell>
                <mxCell id="2_TCfYf8XNbaHGVU_MSA-46" value="cannot rule out elment 1, expand region further to identify the region. If no region can be expanded, we are at the dead-end" style="text;align=left;verticalAlign=middle;spacingLeft=4;spacingRight=4;overflow=hidden;points=[[0,0.5],[1,0.5]];portConstraint=eastwest;rotatable=0;dashed=1;textDirection=ltr;whiteSpace=wrap;html=1;fillColor=#a20025;fontColor=#ffffff;strokeColor=#6F0000;" parent="n69lvujE0PTRM3WjqRuP-1" vertex="1">
                    <mxGeometry x="2470" y="-40" width="260" height="80" as="geometry"/>
                </mxCell>
            </root>
        </mxGraphModel>
    </diagram>
    <diagram id="QlQIw1NQbClqm47gFIlo" name="remove neighbor elements">
        <mxGraphModel dx="1239" dy="472" grid="1" gridSize="10" guides="1" tooltips="1" connect="1" arrows="1" fold="1" page="1" pageScale="1" pageWidth="850" pageHeight="1100" math="0" shadow="0">
            <root>
                <mxCell id="2Sp6hkKi1OJlwOUDg1e--0"/>
                <mxCell id="2Sp6hkKi1OJlwOUDg1e--1" parent="2Sp6hkKi1OJlwOUDg1e--0"/>
                <mxCell id="63b2ryISfmoFUpEbFCI0-2" value="" style="rounded=0;whiteSpace=wrap;html=1;dashed=1;strokeColor=default;strokeWidth=7;perimeterSpacing=7;" parent="2Sp6hkKi1OJlwOUDg1e--1" vertex="1">
                    <mxGeometry x="785" y="130" width="185" height="470" as="geometry"/>
                </mxCell>
                <mxCell id="63b2ryISfmoFUpEbFCI0-1" value="" style="rounded=0;whiteSpace=wrap;html=1;dashed=1;strokeColor=none;" parent="2Sp6hkKi1OJlwOUDg1e--1" vertex="1">
                    <mxGeometry x="330" y="125" width="170" height="460" as="geometry"/>
                </mxCell>
                <mxCell id="63b2ryISfmoFUpEbFCI0-0" value="" style="rounded=0;whiteSpace=wrap;html=1;dashed=1;strokeColor=none;" parent="2Sp6hkKi1OJlwOUDg1e--1" vertex="1">
                    <mxGeometry x="100" y="120" width="170" height="460" as="geometry"/>
                </mxCell>
                <mxCell id="i1igDkDnS0xISY_OlKCe-1" value="element 1" style="rounded=0;whiteSpace=wrap;html=1;" parent="2Sp6hkKi1OJlwOUDg1e--1" vertex="1">
                    <mxGeometry x="110" y="230" width="120" height="60" as="geometry"/>
                </mxCell>
                <mxCell id="i1igDkDnS0xISY_OlKCe-5" value="element 2 (target element)" style="rounded=0;whiteSpace=wrap;html=1;" parent="2Sp6hkKi1OJlwOUDg1e--1" vertex="1">
                    <mxGeometry x="110" y="310" width="120" height="60" as="geometry"/>
                </mxCell>
                <mxCell id="i1igDkDnS0xISY_OlKCe-6" value="element 3" style="rounded=0;whiteSpace=wrap;html=1;" parent="2Sp6hkKi1OJlwOUDg1e--1" vertex="1">
                    <mxGeometry x="110" y="400" width="120" height="60" as="geometry"/>
                </mxCell>
                <mxCell id="i1igDkDnS0xISY_OlKCe-7" value="baseline" style="text;html=1;strokeColor=none;fillColor=none;align=center;verticalAlign=middle;whiteSpace=wrap;rounded=0;" parent="2Sp6hkKi1OJlwOUDg1e--1" vertex="1">
                    <mxGeometry x="130" y="70" width="60" height="30" as="geometry"/>
                </mxCell>
                <mxCell id="i1igDkDnS0xISY_OlKCe-9" value="element 2 - modify greatly&amp;nbsp; (target element)" style="rounded=0;whiteSpace=wrap;html=1;" parent="2Sp6hkKi1OJlwOUDg1e--1" vertex="1">
                    <mxGeometry x="350" y="310" width="120" height="60" as="geometry"/>
                </mxCell>
                <mxCell id="i1igDkDnS0xISY_OlKCe-10" value="element 3" style="rounded=0;whiteSpace=wrap;html=1;" parent="2Sp6hkKi1OJlwOUDg1e--1" vertex="1">
                    <mxGeometry x="350" y="400" width="120" height="60" as="geometry"/>
                </mxCell>
                <mxCell id="i1igDkDnS0xISY_OlKCe-11" value="baseline" style="text;html=1;strokeColor=none;fillColor=none;align=center;verticalAlign=middle;whiteSpace=wrap;rounded=0;" parent="2Sp6hkKi1OJlwOUDg1e--1" vertex="1">
                    <mxGeometry x="385" y="70" width="60" height="30" as="geometry"/>
                </mxCell>
                <mxCell id="i1igDkDnS0xISY_OlKCe-12" value="If a neighbor element is remove din the new baseline, similarity identify a region" style="text;html=1;strokeColor=none;fillColor=none;align=center;verticalAlign=middle;whiteSpace=wrap;rounded=0;" parent="2Sp6hkKi1OJlwOUDg1e--1" vertex="1">
                    <mxGeometry x="200" y="600" width="200" height="30" as="geometry"/>
                </mxCell>
                <mxCell id="i1igDkDnS0xISY_OlKCe-13" value="element 4" style="rounded=0;whiteSpace=wrap;html=1;dashed=1;" parent="2Sp6hkKi1OJlwOUDg1e--1" vertex="1">
                    <mxGeometry x="110" y="495" width="120" height="60" as="geometry"/>
                </mxCell>
                <mxCell id="i1igDkDnS0xISY_OlKCe-14" value="element 4" style="rounded=0;whiteSpace=wrap;html=1;dashed=1;" parent="2Sp6hkKi1OJlwOUDg1e--1" vertex="1">
                    <mxGeometry x="355" y="495" width="120" height="60" as="geometry"/>
                </mxCell>
                <mxCell id="i1igDkDnS0xISY_OlKCe-16" value="element 0" style="rounded=0;whiteSpace=wrap;html=1;" parent="2Sp6hkKi1OJlwOUDg1e--1" vertex="1">
                    <mxGeometry x="110" y="150" width="120" height="60" as="geometry"/>
                </mxCell>
                <mxCell id="i1igDkDnS0xISY_OlKCe-17" value="element 0" style="rounded=0;whiteSpace=wrap;html=1;" parent="2Sp6hkKi1OJlwOUDg1e--1" vertex="1">
                    <mxGeometry x="350" y="230" width="120" height="60" as="geometry"/>
                </mxCell>
                <mxCell id="i1igDkDnS0xISY_OlKCe-18" value="element 1" style="rounded=0;whiteSpace=wrap;html=1;" parent="2Sp6hkKi1OJlwOUDg1e--1" vertex="1">
                    <mxGeometry x="810" y="260" width="120" height="60" as="geometry"/>
                </mxCell>
                <mxCell id="i1igDkDnS0xISY_OlKCe-19" value="element 2 (target element)" style="rounded=0;whiteSpace=wrap;html=1;" parent="2Sp6hkKi1OJlwOUDg1e--1" vertex="1">
                    <mxGeometry x="810" y="340" width="120" height="60" as="geometry"/>
                </mxCell>
                <mxCell id="i1igDkDnS0xISY_OlKCe-21" value="baseline" style="text;html=1;strokeColor=none;fillColor=none;align=center;verticalAlign=middle;whiteSpace=wrap;rounded=0;" parent="2Sp6hkKi1OJlwOUDg1e--1" vertex="1">
                    <mxGeometry x="830" y="100" width="60" height="30" as="geometry"/>
                </mxCell>
                <mxCell id="i1igDkDnS0xISY_OlKCe-22" value="element 2 - modify greatly&amp;nbsp; (target element)" style="rounded=0;whiteSpace=wrap;html=1;" parent="2Sp6hkKi1OJlwOUDg1e--1" vertex="1">
                    <mxGeometry x="1050" y="340" width="120" height="60" as="geometry"/>
                </mxCell>
                <mxCell id="i1igDkDnS0xISY_OlKCe-24" value="baseline" style="text;html=1;strokeColor=none;fillColor=none;align=center;verticalAlign=middle;whiteSpace=wrap;rounded=0;" parent="2Sp6hkKi1OJlwOUDg1e--1" vertex="1">
                    <mxGeometry x="1085" y="100" width="60" height="30" as="geometry"/>
                </mxCell>
                <mxCell id="i1igDkDnS0xISY_OlKCe-25" value="In this case, we are able to find element correctly" style="text;html=1;strokeColor=none;fillColor=none;align=center;verticalAlign=middle;whiteSpace=wrap;rounded=0;" parent="2Sp6hkKi1OJlwOUDg1e--1" vertex="1">
                    <mxGeometry x="900" y="630" width="200" height="30" as="geometry"/>
                </mxCell>
            </root>
        </mxGraphModel>
    </diagram>
    <diagram id="FiNB9I2AlKotU-hNsbp7" name="remove+add scenario">
        <mxGraphModel dx="1239" dy="472" grid="1" gridSize="10" guides="1" tooltips="1" connect="1" arrows="1" fold="1" page="1" pageScale="1" pageWidth="850" pageHeight="1100" math="0" shadow="0">
            <root>
                <mxCell id="Nc_89_6OQ4yT7L4empBE-0"/>
                <mxCell id="Nc_89_6OQ4yT7L4empBE-1" parent="Nc_89_6OQ4yT7L4empBE-0"/>
                <mxCell id="AYQCPfb0ucdewtTU-d0H-0" value="" style="rounded=0;whiteSpace=wrap;html=1;dashed=1;strokeColor=none;" parent="Nc_89_6OQ4yT7L4empBE-1" vertex="1">
                    <mxGeometry x="330" y="125" width="170" height="460" as="geometry"/>
                </mxCell>
                <mxCell id="AYQCPfb0ucdewtTU-d0H-1" value="" style="rounded=0;whiteSpace=wrap;html=1;dashed=1;strokeColor=none;" parent="Nc_89_6OQ4yT7L4empBE-1" vertex="1">
                    <mxGeometry x="100" y="120" width="170" height="460" as="geometry"/>
                </mxCell>
                <mxCell id="AYQCPfb0ucdewtTU-d0H-2" value="element 1" style="rounded=0;whiteSpace=wrap;html=1;" parent="Nc_89_6OQ4yT7L4empBE-1" vertex="1">
                    <mxGeometry x="110" y="230" width="120" height="60" as="geometry"/>
                </mxCell>
                <mxCell id="AYQCPfb0ucdewtTU-d0H-3" value="element 2 (target element)" style="rounded=0;whiteSpace=wrap;html=1;" parent="Nc_89_6OQ4yT7L4empBE-1" vertex="1">
                    <mxGeometry x="110" y="310" width="120" height="60" as="geometry"/>
                </mxCell>
                <mxCell id="AYQCPfb0ucdewtTU-d0H-4" value="element 3" style="rounded=0;whiteSpace=wrap;html=1;" parent="Nc_89_6OQ4yT7L4empBE-1" vertex="1">
                    <mxGeometry x="110" y="400" width="120" height="60" as="geometry"/>
                </mxCell>
                <mxCell id="AYQCPfb0ucdewtTU-d0H-5" value="baseline" style="text;html=1;strokeColor=none;fillColor=none;align=center;verticalAlign=middle;whiteSpace=wrap;rounded=0;" parent="Nc_89_6OQ4yT7L4empBE-1" vertex="1">
                    <mxGeometry x="130" y="70" width="60" height="30" as="geometry"/>
                </mxCell>
                <mxCell id="AYQCPfb0ucdewtTU-d0H-6" value="element 2 - modify greatly&amp;nbsp; (target element)" style="rounded=0;whiteSpace=wrap;html=1;" parent="Nc_89_6OQ4yT7L4empBE-1" vertex="1">
                    <mxGeometry x="350" y="310" width="120" height="60" as="geometry"/>
                </mxCell>
                <mxCell id="AYQCPfb0ucdewtTU-d0H-7" value="element 3" style="rounded=0;whiteSpace=wrap;html=1;" parent="Nc_89_6OQ4yT7L4empBE-1" vertex="1">
                    <mxGeometry x="350" y="400" width="120" height="60" as="geometry"/>
                </mxCell>
                <mxCell id="AYQCPfb0ucdewtTU-d0H-8" value="baseline" style="text;html=1;strokeColor=none;fillColor=none;align=center;verticalAlign=middle;whiteSpace=wrap;rounded=0;" parent="Nc_89_6OQ4yT7L4empBE-1" vertex="1">
                    <mxGeometry x="385" y="70" width="60" height="30" as="geometry"/>
                </mxCell>
                <mxCell id="AYQCPfb0ucdewtTU-d0H-9" value="If a neighbor element is remove din the new baseline, similarity identify a region" style="text;html=1;strokeColor=none;fillColor=none;align=center;verticalAlign=middle;whiteSpace=wrap;rounded=0;" parent="Nc_89_6OQ4yT7L4empBE-1" vertex="1">
                    <mxGeometry x="200" y="600" width="200" height="30" as="geometry"/>
                </mxCell>
                <mxCell id="AYQCPfb0ucdewtTU-d0H-10" value="element 4" style="rounded=0;whiteSpace=wrap;html=1;dashed=1;" parent="Nc_89_6OQ4yT7L4empBE-1" vertex="1">
                    <mxGeometry x="110" y="495" width="120" height="60" as="geometry"/>
                </mxCell>
                <mxCell id="AYQCPfb0ucdewtTU-d0H-11" value="element 4" style="rounded=0;whiteSpace=wrap;html=1;dashed=1;" parent="Nc_89_6OQ4yT7L4empBE-1" vertex="1">
                    <mxGeometry x="355" y="495" width="120" height="60" as="geometry"/>
                </mxCell>
                <mxCell id="AYQCPfb0ucdewtTU-d0H-12" value="element 0" style="rounded=0;whiteSpace=wrap;html=1;" parent="Nc_89_6OQ4yT7L4empBE-1" vertex="1">
                    <mxGeometry x="110" y="150" width="120" height="60" as="geometry"/>
                </mxCell>
                <mxCell id="AYQCPfb0ucdewtTU-d0H-13" value="element 0" style="rounded=0;whiteSpace=wrap;html=1;" parent="Nc_89_6OQ4yT7L4empBE-1" vertex="1">
                    <mxGeometry x="350" y="160" width="120" height="60" as="geometry"/>
                </mxCell>
                <mxCell id="AYQCPfb0ucdewtTU-d0H-14" value="element 5" style="rounded=0;whiteSpace=wrap;html=1;" parent="Nc_89_6OQ4yT7L4empBE-1" vertex="1">
                    <mxGeometry x="350" y="230" width="120" height="60" as="geometry"/>
                </mxCell>
            </root>
        </mxGraphModel>
    </diagram>
    <diagram id="7OV4ebDcVRi9MzpLf1lU" name="missing layer">
        <mxGraphModel dx="2570" dy="674" grid="1" gridSize="10" guides="1" tooltips="1" connect="1" arrows="1" fold="1" page="1" pageScale="1" pageWidth="850" pageHeight="1100" math="0" shadow="0">
            <root>
                <mxCell id="BHx1yblLmXntVQLwUfAv-0"/>
                <mxCell id="BHx1yblLmXntVQLwUfAv-1" parent="BHx1yblLmXntVQLwUfAv-0"/>
                <mxCell id="dpft6NPxGcrS7hfI33ui-2" style="edgeStyle=none;html=1;entryX=0.75;entryY=0;entryDx=0;entryDy=0;" parent="BHx1yblLmXntVQLwUfAv-1" source="BHx1yblLmXntVQLwUfAv-2" target="dpft6NPxGcrS7hfI33ui-0" edge="1">
                    <mxGeometry relative="1" as="geometry"/>
                </mxCell>
                <mxCell id="dpft6NPxGcrS7hfI33ui-3" style="edgeStyle=none;html=1;entryX=0.5;entryY=0;entryDx=0;entryDy=0;" parent="BHx1yblLmXntVQLwUfAv-1" source="BHx1yblLmXntVQLwUfAv-2" target="dpft6NPxGcrS7hfI33ui-1" edge="1">
                    <mxGeometry relative="1" as="geometry"/>
                </mxCell>
                <mxCell id="BHx1yblLmXntVQLwUfAv-2" value="list" style="rounded=0;whiteSpace=wrap;html=1;strokeColor=default;strokeWidth=1;" parent="BHx1yblLmXntVQLwUfAv-1" vertex="1">
                    <mxGeometry x="211" y="70" width="120" height="60" as="geometry"/>
                </mxCell>
                <mxCell id="dpft6NPxGcrS7hfI33ui-5" value="" style="edgeStyle=none;html=1;" parent="BHx1yblLmXntVQLwUfAv-1" source="dpft6NPxGcrS7hfI33ui-0" target="dpft6NPxGcrS7hfI33ui-4" edge="1">
                    <mxGeometry relative="1" as="geometry"/>
                </mxCell>
                <mxCell id="dpft6NPxGcrS7hfI33ui-6" value="" style="edgeStyle=none;html=1;" parent="BHx1yblLmXntVQLwUfAv-1" source="dpft6NPxGcrS7hfI33ui-0" target="dpft6NPxGcrS7hfI33ui-4" edge="1">
                    <mxGeometry relative="1" as="geometry"/>
                </mxCell>
                <mxCell id="dpft6NPxGcrS7hfI33ui-8" style="edgeStyle=none;html=1;entryX=0.5;entryY=0;entryDx=0;entryDy=0;" parent="BHx1yblLmXntVQLwUfAv-1" source="dpft6NPxGcrS7hfI33ui-0" target="dpft6NPxGcrS7hfI33ui-7" edge="1">
                    <mxGeometry relative="1" as="geometry"/>
                </mxCell>
                <mxCell id="dpft6NPxGcrS7hfI33ui-0" value="list 1" style="rounded=0;whiteSpace=wrap;html=1;strokeColor=default;strokeWidth=1;" parent="BHx1yblLmXntVQLwUfAv-1" vertex="1">
                    <mxGeometry x="130" y="200" width="120" height="60" as="geometry"/>
                </mxCell>
                <mxCell id="dpft6NPxGcrS7hfI33ui-1" value="litem 1" style="rounded=0;whiteSpace=wrap;html=1;strokeColor=default;strokeWidth=1;" parent="BHx1yblLmXntVQLwUfAv-1" vertex="1">
                    <mxGeometry x="320" y="200" width="120" height="60" as="geometry"/>
                </mxCell>
                <mxCell id="dpft6NPxGcrS7hfI33ui-10" style="edgeStyle=none;html=1;entryX=0.5;entryY=0;entryDx=0;entryDy=0;" parent="BHx1yblLmXntVQLwUfAv-1" source="dpft6NPxGcrS7hfI33ui-4" target="dpft6NPxGcrS7hfI33ui-9" edge="1">
                    <mxGeometry relative="1" as="geometry"/>
                </mxCell>
                <mxCell id="dpft6NPxGcrS7hfI33ui-12" style="edgeStyle=none;html=1;entryX=0.5;entryY=0;entryDx=0;entryDy=0;" parent="BHx1yblLmXntVQLwUfAv-1" source="dpft6NPxGcrS7hfI33ui-4" target="dpft6NPxGcrS7hfI33ui-11" edge="1">
                    <mxGeometry relative="1" as="geometry"/>
                </mxCell>
                <mxCell id="dpft6NPxGcrS7hfI33ui-4" value="list 2" style="rounded=0;whiteSpace=wrap;html=1;strokeColor=#2D7600;strokeWidth=1;fillColor=#60a917;fontColor=#ffffff;" parent="BHx1yblLmXntVQLwUfAv-1" vertex="1">
                    <mxGeometry x="80" y="320" width="120" height="60" as="geometry"/>
                </mxCell>
                <mxCell id="dpft6NPxGcrS7hfI33ui-7" value="item 2" style="rounded=0;whiteSpace=wrap;html=1;strokeColor=default;strokeWidth=1;" parent="BHx1yblLmXntVQLwUfAv-1" vertex="1">
                    <mxGeometry x="230" y="320" width="120" height="60" as="geometry"/>
                </mxCell>
                <mxCell id="dpft6NPxGcrS7hfI33ui-9" value="item 3" style="rounded=0;whiteSpace=wrap;html=1;strokeColor=default;strokeWidth=1;" parent="BHx1yblLmXntVQLwUfAv-1" vertex="1">
                    <mxGeometry x="-20" y="440" width="120" height="60" as="geometry"/>
                </mxCell>
                <mxCell id="dpft6NPxGcrS7hfI33ui-11" value="item 4" style="rounded=0;whiteSpace=wrap;html=1;strokeColor=default;strokeWidth=1;" parent="BHx1yblLmXntVQLwUfAv-1" vertex="1">
                    <mxGeometry x="140" y="440" width="120" height="60" as="geometry"/>
                </mxCell>
                <mxCell id="dpft6NPxGcrS7hfI33ui-14" style="edgeStyle=none;html=1;entryX=0.5;entryY=0;entryDx=0;entryDy=0;" parent="BHx1yblLmXntVQLwUfAv-1" source="dpft6NPxGcrS7hfI33ui-15" target="dpft6NPxGcrS7hfI33ui-20" edge="1">
                    <mxGeometry relative="1" as="geometry"/>
                </mxCell>
                <mxCell id="dpft6NPxGcrS7hfI33ui-15" value="list" style="rounded=0;whiteSpace=wrap;html=1;strokeColor=default;strokeWidth=1;" parent="BHx1yblLmXntVQLwUfAv-1" vertex="1">
                    <mxGeometry x="830" y="70" width="120" height="60" as="geometry"/>
                </mxCell>
                <mxCell id="dpft6NPxGcrS7hfI33ui-17" value="" style="edgeStyle=none;html=1;" parent="BHx1yblLmXntVQLwUfAv-1" source="dpft6NPxGcrS7hfI33ui-15" target="dpft6NPxGcrS7hfI33ui-23" edge="1">
                    <mxGeometry relative="1" as="geometry">
                        <mxPoint x="797.5" y="260" as="sourcePoint"/>
                    </mxGeometry>
                </mxCell>
                <mxCell id="dpft6NPxGcrS7hfI33ui-18" style="edgeStyle=none;html=1;entryX=0.5;entryY=0;entryDx=0;entryDy=0;exitX=0.5;exitY=1;exitDx=0;exitDy=0;" parent="BHx1yblLmXntVQLwUfAv-1" source="dpft6NPxGcrS7hfI33ui-15" target="dpft6NPxGcrS7hfI33ui-24" edge="1">
                    <mxGeometry relative="1" as="geometry">
                        <mxPoint x="843.3333333333335" y="260" as="sourcePoint"/>
                    </mxGeometry>
                </mxCell>
                <mxCell id="dpft6NPxGcrS7hfI33ui-20" value="Item 1" style="rounded=0;whiteSpace=wrap;html=1;strokeColor=default;strokeWidth=1;" parent="BHx1yblLmXntVQLwUfAv-1" vertex="1">
                    <mxGeometry x="1070" y="230" width="120" height="60" as="geometry"/>
                </mxCell>
                <mxCell id="dpft6NPxGcrS7hfI33ui-21" style="edgeStyle=none;html=1;entryX=0.5;entryY=0;entryDx=0;entryDy=0;" parent="BHx1yblLmXntVQLwUfAv-1" source="dpft6NPxGcrS7hfI33ui-23" target="dpft6NPxGcrS7hfI33ui-25" edge="1">
                    <mxGeometry relative="1" as="geometry"/>
                </mxCell>
                <mxCell id="dpft6NPxGcrS7hfI33ui-22" style="edgeStyle=none;html=1;entryX=0.5;entryY=0;entryDx=0;entryDy=0;" parent="BHx1yblLmXntVQLwUfAv-1" source="dpft6NPxGcrS7hfI33ui-23" target="dpft6NPxGcrS7hfI33ui-26" edge="1">
                    <mxGeometry relative="1" as="geometry"/>
                </mxCell>
                <mxCell id="dpft6NPxGcrS7hfI33ui-23" value="list 2" style="rounded=0;whiteSpace=wrap;html=1;strokeColor=#2D7600;strokeWidth=1;fillColor=#60a917;fontColor=#ffffff;" parent="BHx1yblLmXntVQLwUfAv-1" vertex="1">
                    <mxGeometry x="650" y="210" width="120" height="60" as="geometry"/>
                </mxCell>
                <mxCell id="dpft6NPxGcrS7hfI33ui-24" value="item 2" style="rounded=0;whiteSpace=wrap;html=1;strokeColor=default;strokeWidth=1;" parent="BHx1yblLmXntVQLwUfAv-1" vertex="1">
                    <mxGeometry x="870" y="220" width="120" height="60" as="geometry"/>
                </mxCell>
                <mxCell id="dpft6NPxGcrS7hfI33ui-25" value="item 3" style="rounded=0;whiteSpace=wrap;html=1;strokeColor=default;strokeWidth=1;" parent="BHx1yblLmXntVQLwUfAv-1" vertex="1">
                    <mxGeometry x="490" y="340" width="120" height="60" as="geometry"/>
                </mxCell>
                <mxCell id="dpft6NPxGcrS7hfI33ui-26" value="item 4" style="rounded=0;whiteSpace=wrap;html=1;strokeColor=default;strokeWidth=1;" parent="BHx1yblLmXntVQLwUfAv-1" vertex="1">
                    <mxGeometry x="660" y="340" width="120" height="60" as="geometry"/>
                </mxCell>
                <mxCell id="oYkYmRllfNJLqbhqeR2i-14" style="edgeStyle=none;html=1;entryX=0.75;entryY=0;entryDx=0;entryDy=0;" parent="BHx1yblLmXntVQLwUfAv-1" source="oYkYmRllfNJLqbhqeR2i-16" target="oYkYmRllfNJLqbhqeR2i-20" edge="1">
                    <mxGeometry relative="1" as="geometry"/>
                </mxCell>
                <mxCell id="oYkYmRllfNJLqbhqeR2i-15" style="edgeStyle=none;html=1;entryX=0.5;entryY=0;entryDx=0;entryDy=0;" parent="BHx1yblLmXntVQLwUfAv-1" source="oYkYmRllfNJLqbhqeR2i-16" target="oYkYmRllfNJLqbhqeR2i-21" edge="1">
                    <mxGeometry relative="1" as="geometry"/>
                </mxCell>
                <mxCell id="oYkYmRllfNJLqbhqeR2i-16" value="list" style="rounded=0;whiteSpace=wrap;html=1;strokeColor=default;strokeWidth=1;" parent="BHx1yblLmXntVQLwUfAv-1" vertex="1">
                    <mxGeometry x="-170" y="840" width="120" height="60" as="geometry"/>
                </mxCell>
                <mxCell id="oYkYmRllfNJLqbhqeR2i-17" value="" style="edgeStyle=none;html=1;" parent="BHx1yblLmXntVQLwUfAv-1" source="oYkYmRllfNJLqbhqeR2i-20" target="oYkYmRllfNJLqbhqeR2i-24" edge="1">
                    <mxGeometry relative="1" as="geometry"/>
                </mxCell>
                <mxCell id="oYkYmRllfNJLqbhqeR2i-18" value="" style="edgeStyle=none;html=1;" parent="BHx1yblLmXntVQLwUfAv-1" source="oYkYmRllfNJLqbhqeR2i-20" target="oYkYmRllfNJLqbhqeR2i-24" edge="1">
                    <mxGeometry relative="1" as="geometry"/>
                </mxCell>
                <mxCell id="oYkYmRllfNJLqbhqeR2i-19" style="edgeStyle=none;html=1;entryX=0.5;entryY=0;entryDx=0;entryDy=0;" parent="BHx1yblLmXntVQLwUfAv-1" source="oYkYmRllfNJLqbhqeR2i-20" target="oYkYmRllfNJLqbhqeR2i-25" edge="1">
                    <mxGeometry relative="1" as="geometry"/>
                </mxCell>
                <mxCell id="oYkYmRllfNJLqbhqeR2i-20" value="list 1" style="rounded=0;whiteSpace=wrap;html=1;strokeColor=default;strokeWidth=1;" parent="BHx1yblLmXntVQLwUfAv-1" vertex="1">
                    <mxGeometry x="-250" y="970" width="120" height="60" as="geometry"/>
                </mxCell>
                <mxCell id="oYkYmRllfNJLqbhqeR2i-33" style="edgeStyle=none;html=1;" parent="BHx1yblLmXntVQLwUfAv-1" source="oYkYmRllfNJLqbhqeR2i-21" target="oYkYmRllfNJLqbhqeR2i-30" edge="1">
                    <mxGeometry relative="1" as="geometry"/>
                </mxCell>
                <mxCell id="oYkYmRllfNJLqbhqeR2i-34" style="edgeStyle=none;html=1;entryX=0.5;entryY=0;entryDx=0;entryDy=0;" parent="BHx1yblLmXntVQLwUfAv-1" source="oYkYmRllfNJLqbhqeR2i-21" target="oYkYmRllfNJLqbhqeR2i-35" edge="1">
                    <mxGeometry relative="1" as="geometry">
                        <mxPoint x="380" y="1110" as="targetPoint"/>
                    </mxGeometry>
                </mxCell>
                <mxCell id="oYkYmRllfNJLqbhqeR2i-21" value="list 3" style="rounded=0;whiteSpace=wrap;html=1;strokeColor=default;strokeWidth=1;" parent="BHx1yblLmXntVQLwUfAv-1" vertex="1">
                    <mxGeometry x="50" y="980" width="120" height="60" as="geometry"/>
                </mxCell>
                <mxCell id="oYkYmRllfNJLqbhqeR2i-22" style="edgeStyle=none;html=1;entryX=0.5;entryY=0;entryDx=0;entryDy=0;" parent="BHx1yblLmXntVQLwUfAv-1" source="oYkYmRllfNJLqbhqeR2i-24" target="oYkYmRllfNJLqbhqeR2i-26" edge="1">
                    <mxGeometry relative="1" as="geometry"/>
                </mxCell>
                <mxCell id="oYkYmRllfNJLqbhqeR2i-23" style="edgeStyle=none;html=1;entryX=0.5;entryY=0;entryDx=0;entryDy=0;" parent="BHx1yblLmXntVQLwUfAv-1" source="oYkYmRllfNJLqbhqeR2i-24" target="oYkYmRllfNJLqbhqeR2i-27" edge="1">
                    <mxGeometry relative="1" as="geometry"/>
                </mxCell>
                <mxCell id="oYkYmRllfNJLqbhqeR2i-24" value="list 2" style="rounded=0;whiteSpace=wrap;html=1;strokeColor=#2D7600;strokeWidth=1;fillColor=#60a917;fontColor=#ffffff;" parent="BHx1yblLmXntVQLwUfAv-1" vertex="1">
                    <mxGeometry x="-300" y="1090" width="120" height="60" as="geometry"/>
                </mxCell>
                <mxCell id="oYkYmRllfNJLqbhqeR2i-25" value="item 2" style="rounded=0;whiteSpace=wrap;html=1;strokeColor=default;strokeWidth=1;" parent="BHx1yblLmXntVQLwUfAv-1" vertex="1">
                    <mxGeometry x="-150" y="1090" width="120" height="60" as="geometry"/>
                </mxCell>
                <mxCell id="oYkYmRllfNJLqbhqeR2i-26" value="item 3" style="rounded=0;whiteSpace=wrap;html=1;strokeColor=default;strokeWidth=1;" parent="BHx1yblLmXntVQLwUfAv-1" vertex="1">
                    <mxGeometry x="-400" y="1210" width="120" height="60" as="geometry"/>
                </mxCell>
                <mxCell id="oYkYmRllfNJLqbhqeR2i-27" value="item 4" style="rounded=0;whiteSpace=wrap;html=1;strokeColor=default;strokeWidth=1;" parent="BHx1yblLmXntVQLwUfAv-1" vertex="1">
                    <mxGeometry x="-240" y="1210" width="120" height="60" as="geometry"/>
                </mxCell>
                <mxCell id="oYkYmRllfNJLqbhqeR2i-28" style="edgeStyle=none;html=1;entryX=0.5;entryY=0;entryDx=0;entryDy=0;" parent="BHx1yblLmXntVQLwUfAv-1" source="oYkYmRllfNJLqbhqeR2i-30" target="oYkYmRllfNJLqbhqeR2i-31" edge="1">
                    <mxGeometry relative="1" as="geometry"/>
                </mxCell>
                <mxCell id="oYkYmRllfNJLqbhqeR2i-29" style="edgeStyle=none;html=1;entryX=0.5;entryY=0;entryDx=0;entryDy=0;" parent="BHx1yblLmXntVQLwUfAv-1" source="oYkYmRllfNJLqbhqeR2i-30" target="oYkYmRllfNJLqbhqeR2i-32" edge="1">
                    <mxGeometry relative="1" as="geometry"/>
                </mxCell>
                <mxCell id="oYkYmRllfNJLqbhqeR2i-30" value="list 2" style="rounded=0;whiteSpace=wrap;html=1;strokeColor=#2D7600;strokeWidth=1;fillColor=#60a917;fontColor=#ffffff;" parent="BHx1yblLmXntVQLwUfAv-1" vertex="1">
                    <mxGeometry x="80" y="1120" width="120" height="60" as="geometry"/>
                </mxCell>
                <mxCell id="oYkYmRllfNJLqbhqeR2i-31" value="item 3" style="rounded=0;whiteSpace=wrap;html=1;strokeColor=default;strokeWidth=1;" parent="BHx1yblLmXntVQLwUfAv-1" vertex="1">
                    <mxGeometry x="-20" y="1240" width="120" height="60" as="geometry"/>
                </mxCell>
                <mxCell id="oYkYmRllfNJLqbhqeR2i-32" value="item 4" style="rounded=0;whiteSpace=wrap;html=1;strokeColor=default;strokeWidth=1;" parent="BHx1yblLmXntVQLwUfAv-1" vertex="1">
                    <mxGeometry x="140" y="1240" width="120" height="60" as="geometry"/>
                </mxCell>
                <mxCell id="oYkYmRllfNJLqbhqeR2i-35" value="item 3" style="rounded=0;whiteSpace=wrap;html=1;strokeColor=default;strokeWidth=1;" parent="BHx1yblLmXntVQLwUfAv-1" vertex="1">
                    <mxGeometry x="280" y="1110" width="120" height="60" as="geometry"/>
                </mxCell>
                <mxCell id="oYkYmRllfNJLqbhqeR2i-37" style="edgeStyle=none;html=1;entryX=0.5;entryY=0;entryDx=0;entryDy=0;" parent="BHx1yblLmXntVQLwUfAv-1" source="oYkYmRllfNJLqbhqeR2i-38" target="oYkYmRllfNJLqbhqeR2i-45" edge="1">
                    <mxGeometry relative="1" as="geometry"/>
                </mxCell>
                <mxCell id="oYkYmRllfNJLqbhqeR2i-38" value="list" style="rounded=0;whiteSpace=wrap;html=1;strokeColor=default;strokeWidth=1;" parent="BHx1yblLmXntVQLwUfAv-1" vertex="1">
                    <mxGeometry x="690" y="840" width="120" height="60" as="geometry"/>
                </mxCell>
                <mxCell id="oYkYmRllfNJLqbhqeR2i-40" value="" style="edgeStyle=none;html=1;exitX=0.25;exitY=1;exitDx=0;exitDy=0;" parent="BHx1yblLmXntVQLwUfAv-1" source="oYkYmRllfNJLqbhqeR2i-38" target="oYkYmRllfNJLqbhqeR2i-48" edge="1">
                    <mxGeometry relative="1" as="geometry">
                        <mxPoint x="657.5" y="1030" as="sourcePoint"/>
                    </mxGeometry>
                </mxCell>
                <mxCell id="oYkYmRllfNJLqbhqeR2i-41" style="edgeStyle=none;html=1;entryX=0.5;entryY=0;entryDx=0;entryDy=0;exitX=0.5;exitY=1;exitDx=0;exitDy=0;" parent="BHx1yblLmXntVQLwUfAv-1" source="oYkYmRllfNJLqbhqeR2i-38" target="oYkYmRllfNJLqbhqeR2i-49" edge="1">
                    <mxGeometry relative="1" as="geometry">
                        <mxPoint x="703.333333333333" y="1030" as="sourcePoint"/>
                    </mxGeometry>
                </mxCell>
                <mxCell id="oYkYmRllfNJLqbhqeR2i-43" style="edgeStyle=none;html=1;" parent="BHx1yblLmXntVQLwUfAv-1" source="oYkYmRllfNJLqbhqeR2i-45" target="oYkYmRllfNJLqbhqeR2i-54" edge="1">
                    <mxGeometry relative="1" as="geometry"/>
                </mxCell>
                <mxCell id="oYkYmRllfNJLqbhqeR2i-44" style="edgeStyle=none;html=1;entryX=0.5;entryY=0;entryDx=0;entryDy=0;" parent="BHx1yblLmXntVQLwUfAv-1" source="oYkYmRllfNJLqbhqeR2i-45" target="oYkYmRllfNJLqbhqeR2i-57" edge="1">
                    <mxGeometry relative="1" as="geometry">
                        <mxPoint x="1240" y="1110" as="targetPoint"/>
                    </mxGeometry>
                </mxCell>
                <mxCell id="oYkYmRllfNJLqbhqeR2i-45" value="list 3" style="rounded=0;whiteSpace=wrap;html=1;strokeColor=default;strokeWidth=1;" parent="BHx1yblLmXntVQLwUfAv-1" vertex="1">
                    <mxGeometry x="910" y="980" width="120" height="60" as="geometry"/>
                </mxCell>
                <mxCell id="oYkYmRllfNJLqbhqeR2i-46" style="edgeStyle=none;html=1;entryX=0.5;entryY=0;entryDx=0;entryDy=0;" parent="BHx1yblLmXntVQLwUfAv-1" source="oYkYmRllfNJLqbhqeR2i-48" target="oYkYmRllfNJLqbhqeR2i-50" edge="1">
                    <mxGeometry relative="1" as="geometry"/>
                </mxCell>
                <mxCell id="oYkYmRllfNJLqbhqeR2i-47" style="edgeStyle=none;html=1;entryX=0.5;entryY=0;entryDx=0;entryDy=0;" parent="BHx1yblLmXntVQLwUfAv-1" source="oYkYmRllfNJLqbhqeR2i-48" target="oYkYmRllfNJLqbhqeR2i-51" edge="1">
                    <mxGeometry relative="1" as="geometry"/>
                </mxCell>
                <mxCell id="oYkYmRllfNJLqbhqeR2i-48" value="list 2" style="rounded=0;whiteSpace=wrap;html=1;strokeColor=#2D7600;strokeWidth=1;fillColor=#60a917;fontColor=#ffffff;" parent="BHx1yblLmXntVQLwUfAv-1" vertex="1">
                    <mxGeometry x="560" y="1090" width="120" height="60" as="geometry"/>
                </mxCell>
                <mxCell id="oYkYmRllfNJLqbhqeR2i-49" value="item 2" style="rounded=0;whiteSpace=wrap;html=1;strokeColor=default;strokeWidth=1;comic=0;" parent="BHx1yblLmXntVQLwUfAv-1" vertex="1">
                    <mxGeometry x="710" y="1090" width="120" height="60" as="geometry"/>
                </mxCell>
                <mxCell id="oYkYmRllfNJLqbhqeR2i-50" value="item 3" style="rounded=0;whiteSpace=wrap;html=1;strokeColor=default;strokeWidth=1;" parent="BHx1yblLmXntVQLwUfAv-1" vertex="1">
                    <mxGeometry x="460" y="1210" width="120" height="60" as="geometry"/>
                </mxCell>
                <mxCell id="oYkYmRllfNJLqbhqeR2i-51" value="item 4" style="rounded=0;whiteSpace=wrap;html=1;strokeColor=default;strokeWidth=1;" parent="BHx1yblLmXntVQLwUfAv-1" vertex="1">
                    <mxGeometry x="620" y="1210" width="120" height="60" as="geometry"/>
                </mxCell>
                <mxCell id="oYkYmRllfNJLqbhqeR2i-52" style="edgeStyle=none;html=1;entryX=0.5;entryY=0;entryDx=0;entryDy=0;" parent="BHx1yblLmXntVQLwUfAv-1" source="oYkYmRllfNJLqbhqeR2i-54" target="oYkYmRllfNJLqbhqeR2i-55" edge="1">
                    <mxGeometry relative="1" as="geometry"/>
                </mxCell>
                <mxCell id="oYkYmRllfNJLqbhqeR2i-53" style="edgeStyle=none;html=1;entryX=0.5;entryY=0;entryDx=0;entryDy=0;" parent="BHx1yblLmXntVQLwUfAv-1" source="oYkYmRllfNJLqbhqeR2i-54" target="oYkYmRllfNJLqbhqeR2i-56" edge="1">
                    <mxGeometry relative="1" as="geometry"/>
                </mxCell>
                <mxCell id="oYkYmRllfNJLqbhqeR2i-54" value="list 2" style="rounded=0;whiteSpace=wrap;html=1;strokeColor=#2D7600;strokeWidth=1;fillColor=#60a917;fontColor=#ffffff;" parent="BHx1yblLmXntVQLwUfAv-1" vertex="1">
                    <mxGeometry x="940" y="1120" width="120" height="60" as="geometry"/>
                </mxCell>
                <mxCell id="oYkYmRllfNJLqbhqeR2i-55" value="item 3" style="rounded=0;whiteSpace=wrap;html=1;strokeColor=default;strokeWidth=1;" parent="BHx1yblLmXntVQLwUfAv-1" vertex="1">
                    <mxGeometry x="840" y="1240" width="120" height="60" as="geometry"/>
                </mxCell>
                <mxCell id="oYkYmRllfNJLqbhqeR2i-56" value="item 4" style="rounded=0;whiteSpace=wrap;html=1;strokeColor=default;strokeWidth=1;" parent="BHx1yblLmXntVQLwUfAv-1" vertex="1">
                    <mxGeometry x="1000" y="1240" width="120" height="60" as="geometry"/>
                </mxCell>
                <mxCell id="oYkYmRllfNJLqbhqeR2i-57" value="item 3" style="rounded=0;whiteSpace=wrap;html=1;strokeColor=default;strokeWidth=1;" parent="BHx1yblLmXntVQLwUfAv-1" vertex="1">
                    <mxGeometry x="1140" y="1110" width="120" height="60" as="geometry"/>
                </mxCell>
                <mxCell id="0g0v2oXt55m4fdZeMUHU-0" value="Text" style="text;html=1;strokeColor=none;fillColor=none;align=center;verticalAlign=middle;whiteSpace=wrap;rounded=0;" vertex="1" parent="BHx1yblLmXntVQLwUfAv-1">
                    <mxGeometry x="570" y="500" width="680" height="90" as="geometry"/>
                </mxCell>
            </root>
        </mxGraphModel>
    </diagram>
    <diagram id="DImnM1NPx79nEdJ348pm" name="add layer">
        <mxGraphModel dx="3039" dy="858" grid="1" gridSize="10" guides="1" tooltips="1" connect="1" arrows="1" fold="1" page="1" pageScale="1" pageWidth="850" pageHeight="1100" math="0" shadow="0">
            <root>
                <mxCell id="-wLY5CoLZihHblVgbo11-0"/>
                <mxCell id="-wLY5CoLZihHblVgbo11-1" parent="-wLY5CoLZihHblVgbo11-0"/>
                <mxCell id="uLsWoDnWZRcVefn1kN-q-0" style="edgeStyle=none;html=1;entryX=0.75;entryY=0;entryDx=0;entryDy=0;" parent="-wLY5CoLZihHblVgbo11-1" source="uLsWoDnWZRcVefn1kN-q-2" target="uLsWoDnWZRcVefn1kN-q-6" edge="1">
                    <mxGeometry relative="1" as="geometry"/>
                </mxCell>
                <mxCell id="uLsWoDnWZRcVefn1kN-q-1" style="edgeStyle=none;html=1;entryX=0.5;entryY=0;entryDx=0;entryDy=0;" parent="-wLY5CoLZihHblVgbo11-1" source="uLsWoDnWZRcVefn1kN-q-2" target="uLsWoDnWZRcVefn1kN-q-9" edge="1">
                    <mxGeometry relative="1" as="geometry"/>
                </mxCell>
                <mxCell id="uLsWoDnWZRcVefn1kN-q-2" value="list" style="rounded=0;whiteSpace=wrap;html=1;strokeColor=default;strokeWidth=1;" parent="-wLY5CoLZihHblVgbo11-1" vertex="1">
                    <mxGeometry x="-170" y="840" width="120" height="60" as="geometry"/>
                </mxCell>
                <mxCell id="uLsWoDnWZRcVefn1kN-q-3" value="" style="edgeStyle=none;html=1;" parent="-wLY5CoLZihHblVgbo11-1" source="uLsWoDnWZRcVefn1kN-q-6" target="uLsWoDnWZRcVefn1kN-q-12" edge="1">
                    <mxGeometry relative="1" as="geometry"/>
                </mxCell>
                <mxCell id="uLsWoDnWZRcVefn1kN-q-4" value="" style="edgeStyle=none;html=1;" parent="-wLY5CoLZihHblVgbo11-1" source="uLsWoDnWZRcVefn1kN-q-6" target="uLsWoDnWZRcVefn1kN-q-12" edge="1">
                    <mxGeometry relative="1" as="geometry"/>
                </mxCell>
                <mxCell id="uLsWoDnWZRcVefn1kN-q-5" style="edgeStyle=none;html=1;entryX=0.5;entryY=0;entryDx=0;entryDy=0;" parent="-wLY5CoLZihHblVgbo11-1" source="uLsWoDnWZRcVefn1kN-q-6" target="uLsWoDnWZRcVefn1kN-q-13" edge="1">
                    <mxGeometry relative="1" as="geometry"/>
                </mxCell>
                <mxCell id="uLsWoDnWZRcVefn1kN-q-6" value="list 1" style="rounded=0;whiteSpace=wrap;html=1;strokeColor=default;strokeWidth=1;" parent="-wLY5CoLZihHblVgbo11-1" vertex="1">
                    <mxGeometry x="-250" y="970" width="120" height="60" as="geometry"/>
                </mxCell>
                <mxCell id="uLsWoDnWZRcVefn1kN-q-7" style="edgeStyle=none;html=1;" parent="-wLY5CoLZihHblVgbo11-1" source="uLsWoDnWZRcVefn1kN-q-9" target="uLsWoDnWZRcVefn1kN-q-18" edge="1">
                    <mxGeometry relative="1" as="geometry"/>
                </mxCell>
                <mxCell id="uLsWoDnWZRcVefn1kN-q-8" style="edgeStyle=none;html=1;entryX=0.5;entryY=0;entryDx=0;entryDy=0;" parent="-wLY5CoLZihHblVgbo11-1" source="uLsWoDnWZRcVefn1kN-q-9" target="uLsWoDnWZRcVefn1kN-q-21" edge="1">
                    <mxGeometry relative="1" as="geometry">
                        <mxPoint x="380" y="1110" as="targetPoint"/>
                    </mxGeometry>
                </mxCell>
                <mxCell id="uLsWoDnWZRcVefn1kN-q-9" value="list 3" style="rounded=0;whiteSpace=wrap;html=1;strokeColor=default;strokeWidth=1;" parent="-wLY5CoLZihHblVgbo11-1" vertex="1">
                    <mxGeometry x="50" y="980" width="120" height="60" as="geometry"/>
                </mxCell>
                <mxCell id="uLsWoDnWZRcVefn1kN-q-10" style="edgeStyle=none;html=1;entryX=0.5;entryY=0;entryDx=0;entryDy=0;" parent="-wLY5CoLZihHblVgbo11-1" source="uLsWoDnWZRcVefn1kN-q-12" target="uLsWoDnWZRcVefn1kN-q-14" edge="1">
                    <mxGeometry relative="1" as="geometry"/>
                </mxCell>
                <mxCell id="uLsWoDnWZRcVefn1kN-q-11" style="edgeStyle=none;html=1;entryX=0.5;entryY=0;entryDx=0;entryDy=0;" parent="-wLY5CoLZihHblVgbo11-1" source="uLsWoDnWZRcVefn1kN-q-12" target="uLsWoDnWZRcVefn1kN-q-15" edge="1">
                    <mxGeometry relative="1" as="geometry"/>
                </mxCell>
                <mxCell id="uLsWoDnWZRcVefn1kN-q-12" value="list 2" style="rounded=0;whiteSpace=wrap;html=1;strokeColor=#2D7600;strokeWidth=1;fillColor=#60a917;fontColor=#ffffff;" parent="-wLY5CoLZihHblVgbo11-1" vertex="1">
                    <mxGeometry x="-300" y="1090" width="120" height="60" as="geometry"/>
                </mxCell>
                <mxCell id="uLsWoDnWZRcVefn1kN-q-13" value="item 2" style="rounded=0;whiteSpace=wrap;html=1;strokeColor=default;strokeWidth=1;" parent="-wLY5CoLZihHblVgbo11-1" vertex="1">
                    <mxGeometry x="-150" y="1090" width="120" height="60" as="geometry"/>
                </mxCell>
                <mxCell id="uLsWoDnWZRcVefn1kN-q-14" value="item 3" style="rounded=0;whiteSpace=wrap;html=1;strokeColor=default;strokeWidth=1;" parent="-wLY5CoLZihHblVgbo11-1" vertex="1">
                    <mxGeometry x="-400" y="1210" width="120" height="60" as="geometry"/>
                </mxCell>
                <mxCell id="uLsWoDnWZRcVefn1kN-q-15" value="item 4" style="rounded=0;whiteSpace=wrap;html=1;strokeColor=default;strokeWidth=1;" parent="-wLY5CoLZihHblVgbo11-1" vertex="1">
                    <mxGeometry x="-240" y="1210" width="120" height="60" as="geometry"/>
                </mxCell>
                <mxCell id="uLsWoDnWZRcVefn1kN-q-16" style="edgeStyle=none;html=1;entryX=0.5;entryY=0;entryDx=0;entryDy=0;" parent="-wLY5CoLZihHblVgbo11-1" source="uLsWoDnWZRcVefn1kN-q-18" target="uLsWoDnWZRcVefn1kN-q-19" edge="1">
                    <mxGeometry relative="1" as="geometry"/>
                </mxCell>
                <mxCell id="uLsWoDnWZRcVefn1kN-q-17" style="edgeStyle=none;html=1;entryX=0.5;entryY=0;entryDx=0;entryDy=0;" parent="-wLY5CoLZihHblVgbo11-1" source="uLsWoDnWZRcVefn1kN-q-18" target="uLsWoDnWZRcVefn1kN-q-20" edge="1">
                    <mxGeometry relative="1" as="geometry"/>
                </mxCell>
                <mxCell id="uLsWoDnWZRcVefn1kN-q-18" value="list 2" style="rounded=0;whiteSpace=wrap;html=1;strokeColor=#005700;strokeWidth=1;fillColor=#008a00;fontColor=#ffffff;" parent="-wLY5CoLZihHblVgbo11-1" vertex="1">
                    <mxGeometry x="80" y="1120" width="120" height="60" as="geometry"/>
                </mxCell>
                <mxCell id="uLsWoDnWZRcVefn1kN-q-19" value="item 3" style="rounded=0;whiteSpace=wrap;html=1;strokeColor=default;strokeWidth=1;" parent="-wLY5CoLZihHblVgbo11-1" vertex="1">
                    <mxGeometry x="-10" y="1240" width="120" height="60" as="geometry"/>
                </mxCell>
                <mxCell id="uLsWoDnWZRcVefn1kN-q-20" value="item 4" style="rounded=0;whiteSpace=wrap;html=1;strokeColor=default;strokeWidth=1;" parent="-wLY5CoLZihHblVgbo11-1" vertex="1">
                    <mxGeometry x="140" y="1240" width="120" height="60" as="geometry"/>
                </mxCell>
                <mxCell id="uLsWoDnWZRcVefn1kN-q-21" value="item 3" style="rounded=0;whiteSpace=wrap;html=1;strokeColor=default;strokeWidth=1;" parent="-wLY5CoLZihHblVgbo11-1" vertex="1">
                    <mxGeometry x="280" y="1110" width="120" height="60" as="geometry"/>
                </mxCell>
                <mxCell id="uLsWoDnWZRcVefn1kN-q-22" style="edgeStyle=none;html=1;entryX=0.75;entryY=0;entryDx=0;entryDy=0;" parent="-wLY5CoLZihHblVgbo11-1" source="uLsWoDnWZRcVefn1kN-q-24" target="uLsWoDnWZRcVefn1kN-q-28" edge="1">
                    <mxGeometry relative="1" as="geometry"/>
                </mxCell>
                <mxCell id="uLsWoDnWZRcVefn1kN-q-23" style="edgeStyle=none;html=1;entryX=0.5;entryY=0;entryDx=0;entryDy=0;" parent="-wLY5CoLZihHblVgbo11-1" source="uLsWoDnWZRcVefn1kN-q-24" target="uLsWoDnWZRcVefn1kN-q-31" edge="1">
                    <mxGeometry relative="1" as="geometry"/>
                </mxCell>
                <mxCell id="uLsWoDnWZRcVefn1kN-q-24" value="list" style="rounded=0;whiteSpace=wrap;html=1;strokeColor=default;strokeWidth=1;" parent="-wLY5CoLZihHblVgbo11-1" vertex="1">
                    <mxGeometry x="850" y="900" width="120" height="60" as="geometry"/>
                </mxCell>
                <mxCell id="uLsWoDnWZRcVefn1kN-q-25" value="" style="edgeStyle=none;html=1;" parent="-wLY5CoLZihHblVgbo11-1" source="uLsWoDnWZRcVefn1kN-q-28" edge="1">
                    <mxGeometry relative="1" as="geometry">
                        <mxPoint x="792.5" y="1150" as="targetPoint"/>
                    </mxGeometry>
                </mxCell>
                <mxCell id="uLsWoDnWZRcVefn1kN-q-26" value="" style="edgeStyle=none;html=1;" parent="-wLY5CoLZihHblVgbo11-1" source="uLsWoDnWZRcVefn1kN-q-28" edge="1">
                    <mxGeometry relative="1" as="geometry">
                        <mxPoint x="792.5" y="1150" as="targetPoint"/>
                    </mxGeometry>
                </mxCell>
                <mxCell id="uLsWoDnWZRcVefn1kN-q-27" style="edgeStyle=none;html=1;entryX=0.5;entryY=0;entryDx=0;entryDy=0;" parent="-wLY5CoLZihHblVgbo11-1" source="uLsWoDnWZRcVefn1kN-q-28" target="uLsWoDnWZRcVefn1kN-q-35" edge="1">
                    <mxGeometry relative="1" as="geometry"/>
                </mxCell>
                <mxCell id="uLsWoDnWZRcVefn1kN-q-28" value="list 1" style="rounded=0;whiteSpace=wrap;html=1;strokeColor=default;strokeWidth=1;" parent="-wLY5CoLZihHblVgbo11-1" vertex="1">
                    <mxGeometry x="770" y="1030" width="120" height="60" as="geometry"/>
                </mxCell>
                <mxCell id="uLsWoDnWZRcVefn1kN-q-29" style="edgeStyle=none;html=1;" parent="-wLY5CoLZihHblVgbo11-1" source="uLsWoDnWZRcVefn1kN-q-31" target="uLsWoDnWZRcVefn1kN-q-40" edge="1">
                    <mxGeometry relative="1" as="geometry"/>
                </mxCell>
                <mxCell id="uLsWoDnWZRcVefn1kN-q-30" style="edgeStyle=none;html=1;entryX=0.5;entryY=0;entryDx=0;entryDy=0;" parent="-wLY5CoLZihHblVgbo11-1" source="uLsWoDnWZRcVefn1kN-q-31" target="uLsWoDnWZRcVefn1kN-q-43" edge="1">
                    <mxGeometry relative="1" as="geometry">
                        <mxPoint x="1400" y="1170" as="targetPoint"/>
                    </mxGeometry>
                </mxCell>
                <mxCell id="uLsWoDnWZRcVefn1kN-q-31" value="list 3" style="rounded=0;whiteSpace=wrap;html=1;strokeColor=default;strokeWidth=1;" parent="-wLY5CoLZihHblVgbo11-1" vertex="1">
                    <mxGeometry x="1070" y="1040" width="120" height="60" as="geometry"/>
                </mxCell>
                <mxCell id="uLsWoDnWZRcVefn1kN-q-35" value="item 2" style="rounded=0;whiteSpace=wrap;html=1;strokeColor=default;strokeWidth=1;" parent="-wLY5CoLZihHblVgbo11-1" vertex="1">
                    <mxGeometry x="870" y="1150" width="120" height="60" as="geometry"/>
                </mxCell>
                <mxCell id="uLsWoDnWZRcVefn1kN-q-38" style="edgeStyle=none;html=1;entryX=0.5;entryY=0;entryDx=0;entryDy=0;" parent="-wLY5CoLZihHblVgbo11-1" source="uLsWoDnWZRcVefn1kN-q-40" target="uLsWoDnWZRcVefn1kN-q-41" edge="1">
                    <mxGeometry relative="1" as="geometry"/>
                </mxCell>
                <mxCell id="uLsWoDnWZRcVefn1kN-q-39" style="edgeStyle=none;html=1;entryX=0.5;entryY=0;entryDx=0;entryDy=0;" parent="-wLY5CoLZihHblVgbo11-1" source="uLsWoDnWZRcVefn1kN-q-40" target="uLsWoDnWZRcVefn1kN-q-42" edge="1">
                    <mxGeometry relative="1" as="geometry"/>
                </mxCell>
                <mxCell id="uLsWoDnWZRcVefn1kN-q-40" value="list 2" style="rounded=0;whiteSpace=wrap;html=1;strokeColor=#005700;strokeWidth=1;fillColor=#008a00;fontColor=#ffffff;" parent="-wLY5CoLZihHblVgbo11-1" vertex="1">
                    <mxGeometry x="1100" y="1180" width="120" height="60" as="geometry"/>
                </mxCell>
                <mxCell id="uLsWoDnWZRcVefn1kN-q-41" value="item 3" style="rounded=0;whiteSpace=wrap;html=1;strokeColor=default;strokeWidth=1;" parent="-wLY5CoLZihHblVgbo11-1" vertex="1">
                    <mxGeometry x="1000" y="1300" width="120" height="60" as="geometry"/>
                </mxCell>
                <mxCell id="uLsWoDnWZRcVefn1kN-q-42" value="item 4" style="rounded=0;whiteSpace=wrap;html=1;strokeColor=default;strokeWidth=1;" parent="-wLY5CoLZihHblVgbo11-1" vertex="1">
                    <mxGeometry x="1160" y="1300" width="120" height="60" as="geometry"/>
                </mxCell>
                <mxCell id="uLsWoDnWZRcVefn1kN-q-43" value="item 3" style="rounded=0;whiteSpace=wrap;html=1;strokeColor=default;strokeWidth=1;" parent="-wLY5CoLZihHblVgbo11-1" vertex="1">
                    <mxGeometry x="1300" y="1170" width="120" height="60" as="geometry"/>
                </mxCell>
                <mxCell id="uLsWoDnWZRcVefn1kN-q-44" style="edgeStyle=none;html=1;entryX=0.5;entryY=0;entryDx=0;entryDy=0;" parent="-wLY5CoLZihHblVgbo11-1" source="uLsWoDnWZRcVefn1kN-q-46" target="uLsWoDnWZRcVefn1kN-q-47" edge="1">
                    <mxGeometry relative="1" as="geometry"/>
                </mxCell>
                <mxCell id="uLsWoDnWZRcVefn1kN-q-45" style="edgeStyle=none;html=1;entryX=0.5;entryY=0;entryDx=0;entryDy=0;" parent="-wLY5CoLZihHblVgbo11-1" source="uLsWoDnWZRcVefn1kN-q-46" target="uLsWoDnWZRcVefn1kN-q-48" edge="1">
                    <mxGeometry relative="1" as="geometry"/>
                </mxCell>
                <mxCell id="uLsWoDnWZRcVefn1kN-q-50" style="edgeStyle=none;html=1;entryX=0.5;entryY=1;entryDx=0;entryDy=0;" parent="-wLY5CoLZihHblVgbo11-1" source="uLsWoDnWZRcVefn1kN-q-46" target="uLsWoDnWZRcVefn1kN-q-49" edge="1">
                    <mxGeometry relative="1" as="geometry"/>
                </mxCell>
                <mxCell id="uLsWoDnWZRcVefn1kN-q-46" value="list 2" style="rounded=0;whiteSpace=wrap;html=1;strokeColor=#2D7600;strokeWidth=1;fillColor=#60a917;fontColor=#ffffff;" parent="-wLY5CoLZihHblVgbo11-1" vertex="1">
                    <mxGeometry x="600" y="1250" width="120" height="60" as="geometry"/>
                </mxCell>
                <mxCell id="uLsWoDnWZRcVefn1kN-q-47" value="item 3" style="rounded=0;whiteSpace=wrap;html=1;strokeColor=default;strokeWidth=1;" parent="-wLY5CoLZihHblVgbo11-1" vertex="1">
                    <mxGeometry x="500" y="1370" width="120" height="60" as="geometry"/>
                </mxCell>
                <mxCell id="uLsWoDnWZRcVefn1kN-q-48" value="item 4" style="rounded=0;whiteSpace=wrap;html=1;strokeColor=default;strokeWidth=1;" parent="-wLY5CoLZihHblVgbo11-1" vertex="1">
                    <mxGeometry x="660" y="1370" width="120" height="60" as="geometry"/>
                </mxCell>
                <mxCell id="uLsWoDnWZRcVefn1kN-q-52" style="edgeStyle=none;html=1;entryX=0.571;entryY=0.025;entryDx=0;entryDy=0;entryPerimeter=0;" parent="-wLY5CoLZihHblVgbo11-1" source="uLsWoDnWZRcVefn1kN-q-49" target="uLsWoDnWZRcVefn1kN-q-51" edge="1">
                    <mxGeometry relative="1" as="geometry"/>
                </mxCell>
                <mxCell id="uLsWoDnWZRcVefn1kN-q-49" value="list 4" style="rounded=0;whiteSpace=wrap;html=1;comic=0;strokeColor=default;strokeWidth=1;" parent="-wLY5CoLZihHblVgbo11-1" vertex="1">
                    <mxGeometry x="710" y="1150" width="120" height="60" as="geometry"/>
                </mxCell>
                <mxCell id="uLsWoDnWZRcVefn1kN-q-51" value="item 5" style="rounded=0;whiteSpace=wrap;html=1;strokeColor=default;strokeWidth=1;" parent="-wLY5CoLZihHblVgbo11-1" vertex="1">
                    <mxGeometry x="800" y="1260" width="120" height="60" as="geometry"/>
                </mxCell>
            </root>
        </mxGraphModel>
    </diagram>
    <diagram id="DGUg94ytWhi-pala5kKW" name="Sample Algorithm Process">
        <mxGraphModel dx="3258" dy="944" grid="1" gridSize="10" guides="1" tooltips="1" connect="1" arrows="1" fold="1" page="1" pageScale="1" pageWidth="850" pageHeight="1100" math="0" shadow="0">
            <root>
                <mxCell id="twupwqkX-t9JmAbM2OeW-0"/>
                <mxCell id="twupwqkX-t9JmAbM2OeW-1" parent="twupwqkX-t9JmAbM2OeW-0"/>
                <mxCell id="mJ6V3OqGCH_RpjbTWv6H-19" style="edgeStyle=none;html=1;entryX=0.25;entryY=0;entryDx=0;entryDy=0;" edge="1" parent="twupwqkX-t9JmAbM2OeW-1" source="mJ6V3OqGCH_RpjbTWv6H-0" target="mJ6V3OqGCH_RpjbTWv6H-8">
                    <mxGeometry relative="1" as="geometry"/>
                </mxCell>
                <mxCell id="mJ6V3OqGCH_RpjbTWv6H-0" value="list" style="rounded=0;whiteSpace=wrap;html=1;fillColor=#a20025;fontColor=#ffffff;strokeColor=#6F0000;" vertex="1" parent="twupwqkX-t9JmAbM2OeW-1">
                    <mxGeometry x="480" y="20" width="120" height="60" as="geometry"/>
                </mxCell>
                <mxCell id="mJ6V3OqGCH_RpjbTWv6H-4" style="edgeStyle=none;html=1;entryX=0.439;entryY=-0.008;entryDx=0;entryDy=0;entryPerimeter=0;" edge="1" parent="twupwqkX-t9JmAbM2OeW-1" source="mJ6V3OqGCH_RpjbTWv6H-1" target="mJ6V3OqGCH_RpjbTWv6H-2">
                    <mxGeometry relative="1" as="geometry"/>
                </mxCell>
                <mxCell id="mJ6V3OqGCH_RpjbTWv6H-5" style="edgeStyle=none;html=1;entryX=0.25;entryY=0;entryDx=0;entryDy=0;" edge="1" parent="twupwqkX-t9JmAbM2OeW-1" source="mJ6V3OqGCH_RpjbTWv6H-1" target="mJ6V3OqGCH_RpjbTWv6H-3">
                    <mxGeometry relative="1" as="geometry"/>
                </mxCell>
                <mxCell id="mJ6V3OqGCH_RpjbTWv6H-7" style="edgeStyle=none;html=1;" edge="1" parent="twupwqkX-t9JmAbM2OeW-1" source="mJ6V3OqGCH_RpjbTWv6H-1" target="mJ6V3OqGCH_RpjbTWv6H-0">
                    <mxGeometry relative="1" as="geometry"/>
                </mxCell>
                <mxCell id="mJ6V3OqGCH_RpjbTWv6H-1" value="list 1" style="rounded=0;whiteSpace=wrap;html=1;fillColor=#a20025;fontColor=#ffffff;strokeColor=#6F0000;" vertex="1" parent="twupwqkX-t9JmAbM2OeW-1">
                    <mxGeometry x="365" y="130" width="120" height="60" as="geometry"/>
                </mxCell>
                <mxCell id="mJ6V3OqGCH_RpjbTWv6H-2" value="item 1=car sales" style="rounded=0;whiteSpace=wrap;html=1;" vertex="1" parent="twupwqkX-t9JmAbM2OeW-1">
                    <mxGeometry x="305" y="240" width="120" height="60" as="geometry"/>
                </mxCell>
                <mxCell id="mJ6V3OqGCH_RpjbTWv6H-40" value="" style="edgeStyle=none;html=1;" edge="1" parent="twupwqkX-t9JmAbM2OeW-1" source="mJ6V3OqGCH_RpjbTWv6H-3" target="mJ6V3OqGCH_RpjbTWv6H-39">
                    <mxGeometry relative="1" as="geometry"/>
                </mxCell>
                <mxCell id="mJ6V3OqGCH_RpjbTWv6H-54" style="edgeStyle=none;html=1;entryX=0.406;entryY=0.004;entryDx=0;entryDy=0;entryPerimeter=0;" edge="1" parent="twupwqkX-t9JmAbM2OeW-1" source="mJ6V3OqGCH_RpjbTWv6H-3" target="mJ6V3OqGCH_RpjbTWv6H-50">
                    <mxGeometry relative="1" as="geometry"/>
                </mxCell>
                <mxCell id="mJ6V3OqGCH_RpjbTWv6H-62" style="edgeStyle=none;html=1;" edge="1" parent="twupwqkX-t9JmAbM2OeW-1" source="mJ6V3OqGCH_RpjbTWv6H-3" target="mJ6V3OqGCH_RpjbTWv6H-58">
                    <mxGeometry relative="1" as="geometry"/>
                </mxCell>
                <mxCell id="mJ6V3OqGCH_RpjbTWv6H-3" value="table" style="rounded=0;whiteSpace=wrap;html=1;fillColor=#a20025;fontColor=#ffffff;strokeColor=#6F0000;" vertex="1" parent="twupwqkX-t9JmAbM2OeW-1">
                    <mxGeometry x="480" y="240" width="120" height="60" as="geometry"/>
                </mxCell>
                <mxCell id="mJ6V3OqGCH_RpjbTWv6H-10" value="" style="edgeStyle=none;html=1;" edge="1" parent="twupwqkX-t9JmAbM2OeW-1" source="mJ6V3OqGCH_RpjbTWv6H-8" target="mJ6V3OqGCH_RpjbTWv6H-9">
                    <mxGeometry relative="1" as="geometry"/>
                </mxCell>
                <mxCell id="mJ6V3OqGCH_RpjbTWv6H-12" style="edgeStyle=none;html=1;entryX=0.5;entryY=0;entryDx=0;entryDy=0;" edge="1" parent="twupwqkX-t9JmAbM2OeW-1" source="mJ6V3OqGCH_RpjbTWv6H-8" target="mJ6V3OqGCH_RpjbTWv6H-11">
                    <mxGeometry relative="1" as="geometry"/>
                </mxCell>
                <mxCell id="mJ6V3OqGCH_RpjbTWv6H-18" style="edgeStyle=none;html=1;entryX=0.5;entryY=0;entryDx=0;entryDy=0;" edge="1" parent="twupwqkX-t9JmAbM2OeW-1" source="mJ6V3OqGCH_RpjbTWv6H-8" target="mJ6V3OqGCH_RpjbTWv6H-17">
                    <mxGeometry relative="1" as="geometry"/>
                </mxCell>
                <mxCell id="mJ6V3OqGCH_RpjbTWv6H-8" value="list 2" style="rounded=0;whiteSpace=wrap;html=1;" vertex="1" parent="twupwqkX-t9JmAbM2OeW-1">
                    <mxGeometry x="690" y="110" width="120" height="60" as="geometry"/>
                </mxCell>
                <mxCell id="mJ6V3OqGCH_RpjbTWv6H-9" value="item 2=Car Buys" style="rounded=0;whiteSpace=wrap;html=1;" vertex="1" parent="twupwqkX-t9JmAbM2OeW-1">
                    <mxGeometry x="630" y="240" width="120" height="60" as="geometry"/>
                </mxCell>
                <mxCell id="mJ6V3OqGCH_RpjbTWv6H-14" style="edgeStyle=none;html=1;entryX=0.5;entryY=0;entryDx=0;entryDy=0;" edge="1" parent="twupwqkX-t9JmAbM2OeW-1" source="mJ6V3OqGCH_RpjbTWv6H-11" target="mJ6V3OqGCH_RpjbTWv6H-13">
                    <mxGeometry relative="1" as="geometry"/>
                </mxCell>
                <mxCell id="mJ6V3OqGCH_RpjbTWv6H-16" style="edgeStyle=none;html=1;entryX=0.25;entryY=0;entryDx=0;entryDy=0;" edge="1" parent="twupwqkX-t9JmAbM2OeW-1" source="mJ6V3OqGCH_RpjbTWv6H-11" target="mJ6V3OqGCH_RpjbTWv6H-15">
                    <mxGeometry relative="1" as="geometry"/>
                </mxCell>
                <mxCell id="mJ6V3OqGCH_RpjbTWv6H-11" value="List3" style="rounded=0;whiteSpace=wrap;html=1;" vertex="1" parent="twupwqkX-t9JmAbM2OeW-1">
                    <mxGeometry x="820" y="240" width="120" height="60" as="geometry"/>
                </mxCell>
                <mxCell id="mJ6V3OqGCH_RpjbTWv6H-13" value="item 3=Search Name" style="rounded=0;whiteSpace=wrap;html=1;" vertex="1" parent="twupwqkX-t9JmAbM2OeW-1">
                    <mxGeometry x="770" y="360" width="120" height="60" as="geometry"/>
                </mxCell>
                <mxCell id="mJ6V3OqGCH_RpjbTWv6H-15" value="item4 = input" style="rounded=0;whiteSpace=wrap;html=1;" vertex="1" parent="twupwqkX-t9JmAbM2OeW-1">
                    <mxGeometry x="970" y="350" width="120" height="60" as="geometry"/>
                </mxCell>
                <mxCell id="mJ6V3OqGCH_RpjbTWv6H-17" value="table2&amp;nbsp;" style="rounded=0;whiteSpace=wrap;html=1;" vertex="1" parent="twupwqkX-t9JmAbM2OeW-1">
                    <mxGeometry x="1000" y="240" width="120" height="60" as="geometry"/>
                </mxCell>
                <mxCell id="mJ6V3OqGCH_RpjbTWv6H-20" style="edgeStyle=none;html=1;entryX=0.25;entryY=0;entryDx=0;entryDy=0;" edge="1" parent="twupwqkX-t9JmAbM2OeW-1" source="mJ6V3OqGCH_RpjbTWv6H-21" target="mJ6V3OqGCH_RpjbTWv6H-31">
                    <mxGeometry relative="1" as="geometry"/>
                </mxCell>
                <mxCell id="mJ6V3OqGCH_RpjbTWv6H-21" value="list" style="rounded=0;whiteSpace=wrap;html=1;" vertex="1" parent="twupwqkX-t9JmAbM2OeW-1">
                    <mxGeometry x="1365" y="50" width="120" height="60" as="geometry"/>
                </mxCell>
                <mxCell id="mJ6V3OqGCH_RpjbTWv6H-22" style="edgeStyle=none;html=1;entryX=0.439;entryY=-0.008;entryDx=0;entryDy=0;entryPerimeter=0;" edge="1" parent="twupwqkX-t9JmAbM2OeW-1" source="mJ6V3OqGCH_RpjbTWv6H-25" target="mJ6V3OqGCH_RpjbTWv6H-26">
                    <mxGeometry relative="1" as="geometry"/>
                </mxCell>
                <mxCell id="mJ6V3OqGCH_RpjbTWv6H-24" style="edgeStyle=none;html=1;" edge="1" parent="twupwqkX-t9JmAbM2OeW-1" source="mJ6V3OqGCH_RpjbTWv6H-25" target="mJ6V3OqGCH_RpjbTWv6H-21">
                    <mxGeometry relative="1" as="geometry"/>
                </mxCell>
                <mxCell id="mJ6V3OqGCH_RpjbTWv6H-66" style="edgeStyle=none;html=1;entryX=0.5;entryY=0;entryDx=0;entryDy=0;fontSize=20;" edge="1" parent="twupwqkX-t9JmAbM2OeW-1" source="mJ6V3OqGCH_RpjbTWv6H-25" target="mJ6V3OqGCH_RpjbTWv6H-65">
                    <mxGeometry relative="1" as="geometry"/>
                </mxCell>
                <mxCell id="mJ6V3OqGCH_RpjbTWv6H-25" value="list 5" style="rounded=0;whiteSpace=wrap;html=1;" vertex="1" parent="twupwqkX-t9JmAbM2OeW-1">
                    <mxGeometry x="1250" y="160" width="120" height="60" as="geometry"/>
                </mxCell>
                <mxCell id="mJ6V3OqGCH_RpjbTWv6H-26" value="item 1=car sales" style="rounded=0;whiteSpace=wrap;html=1;" vertex="1" parent="twupwqkX-t9JmAbM2OeW-1">
                    <mxGeometry x="1150" y="310" width="120" height="60" as="geometry"/>
                </mxCell>
                <mxCell id="mJ6V3OqGCH_RpjbTWv6H-27" value="table" style="rounded=0;whiteSpace=wrap;html=1;" vertex="1" parent="twupwqkX-t9JmAbM2OeW-1">
                    <mxGeometry x="1330" y="430" width="120" height="60" as="geometry"/>
                </mxCell>
                <mxCell id="mJ6V3OqGCH_RpjbTWv6H-28" value="" style="edgeStyle=none;html=1;" edge="1" parent="twupwqkX-t9JmAbM2OeW-1" source="mJ6V3OqGCH_RpjbTWv6H-31" target="mJ6V3OqGCH_RpjbTWv6H-32">
                    <mxGeometry relative="1" as="geometry"/>
                </mxCell>
                <mxCell id="mJ6V3OqGCH_RpjbTWv6H-29" style="edgeStyle=none;html=1;entryX=0.5;entryY=0;entryDx=0;entryDy=0;" edge="1" parent="twupwqkX-t9JmAbM2OeW-1" source="mJ6V3OqGCH_RpjbTWv6H-31" target="mJ6V3OqGCH_RpjbTWv6H-35">
                    <mxGeometry relative="1" as="geometry"/>
                </mxCell>
                <mxCell id="mJ6V3OqGCH_RpjbTWv6H-30" style="edgeStyle=none;html=1;entryX=0.5;entryY=0;entryDx=0;entryDy=0;" edge="1" parent="twupwqkX-t9JmAbM2OeW-1" source="mJ6V3OqGCH_RpjbTWv6H-31" target="mJ6V3OqGCH_RpjbTWv6H-38">
                    <mxGeometry relative="1" as="geometry"/>
                </mxCell>
                <mxCell id="mJ6V3OqGCH_RpjbTWv6H-31" value="list 2" style="rounded=0;whiteSpace=wrap;html=1;" vertex="1" parent="twupwqkX-t9JmAbM2OeW-1">
                    <mxGeometry x="1575" y="140" width="120" height="60" as="geometry"/>
                </mxCell>
                <mxCell id="mJ6V3OqGCH_RpjbTWv6H-32" value="item 2=Car Buys" style="rounded=0;whiteSpace=wrap;html=1;" vertex="1" parent="twupwqkX-t9JmAbM2OeW-1">
                    <mxGeometry x="1515" y="270" width="120" height="60" as="geometry"/>
                </mxCell>
                <mxCell id="mJ6V3OqGCH_RpjbTWv6H-33" style="edgeStyle=none;html=1;entryX=0.5;entryY=0;entryDx=0;entryDy=0;" edge="1" parent="twupwqkX-t9JmAbM2OeW-1" source="mJ6V3OqGCH_RpjbTWv6H-35" target="mJ6V3OqGCH_RpjbTWv6H-36">
                    <mxGeometry relative="1" as="geometry"/>
                </mxCell>
                <mxCell id="mJ6V3OqGCH_RpjbTWv6H-34" style="edgeStyle=none;html=1;entryX=0.25;entryY=0;entryDx=0;entryDy=0;" edge="1" parent="twupwqkX-t9JmAbM2OeW-1" source="mJ6V3OqGCH_RpjbTWv6H-35" target="mJ6V3OqGCH_RpjbTWv6H-37">
                    <mxGeometry relative="1" as="geometry"/>
                </mxCell>
                <mxCell id="mJ6V3OqGCH_RpjbTWv6H-35" value="List3" style="rounded=0;whiteSpace=wrap;html=1;" vertex="1" parent="twupwqkX-t9JmAbM2OeW-1">
                    <mxGeometry x="1705" y="270" width="120" height="60" as="geometry"/>
                </mxCell>
                <mxCell id="mJ6V3OqGCH_RpjbTWv6H-36" value="item 3=Search Name" style="rounded=0;whiteSpace=wrap;html=1;" vertex="1" parent="twupwqkX-t9JmAbM2OeW-1">
                    <mxGeometry x="1655" y="390" width="120" height="60" as="geometry"/>
                </mxCell>
                <mxCell id="mJ6V3OqGCH_RpjbTWv6H-37" value="item4 = input" style="rounded=0;whiteSpace=wrap;html=1;" vertex="1" parent="twupwqkX-t9JmAbM2OeW-1">
                    <mxGeometry x="1855" y="380" width="120" height="60" as="geometry"/>
                </mxCell>
                <mxCell id="mJ6V3OqGCH_RpjbTWv6H-38" value="table2&amp;nbsp;" style="rounded=0;whiteSpace=wrap;html=1;" vertex="1" parent="twupwqkX-t9JmAbM2OeW-1">
                    <mxGeometry x="1885" y="270" width="120" height="60" as="geometry"/>
                </mxCell>
                <mxCell id="mJ6V3OqGCH_RpjbTWv6H-42" value="" style="edgeStyle=none;html=1;" edge="1" parent="twupwqkX-t9JmAbM2OeW-1" source="mJ6V3OqGCH_RpjbTWv6H-39" target="mJ6V3OqGCH_RpjbTWv6H-41">
                    <mxGeometry relative="1" as="geometry"/>
                </mxCell>
                <mxCell id="mJ6V3OqGCH_RpjbTWv6H-44" style="edgeStyle=none;html=1;entryX=0.5;entryY=0;entryDx=0;entryDy=0;" edge="1" parent="twupwqkX-t9JmAbM2OeW-1" source="mJ6V3OqGCH_RpjbTWv6H-39" target="mJ6V3OqGCH_RpjbTWv6H-43">
                    <mxGeometry relative="1" as="geometry"/>
                </mxCell>
                <mxCell id="mJ6V3OqGCH_RpjbTWv6H-46" style="edgeStyle=none;html=1;entryX=0.5;entryY=0;entryDx=0;entryDy=0;" edge="1" parent="twupwqkX-t9JmAbM2OeW-1" source="mJ6V3OqGCH_RpjbTWv6H-39" target="mJ6V3OqGCH_RpjbTWv6H-45">
                    <mxGeometry relative="1" as="geometry"/>
                </mxCell>
                <mxCell id="mJ6V3OqGCH_RpjbTWv6H-39" value="list 1" style="rounded=0;whiteSpace=wrap;html=1;" vertex="1" parent="twupwqkX-t9JmAbM2OeW-1">
                    <mxGeometry x="15" y="370" width="120" height="60" as="geometry"/>
                </mxCell>
                <mxCell id="mJ6V3OqGCH_RpjbTWv6H-41" value="Year" style="rounded=0;whiteSpace=wrap;html=1;" vertex="1" parent="twupwqkX-t9JmAbM2OeW-1">
                    <mxGeometry x="-160" y="470" width="120" height="60" as="geometry"/>
                </mxCell>
                <mxCell id="mJ6V3OqGCH_RpjbTWv6H-43" value="Brand" style="rounded=0;whiteSpace=wrap;html=1;" vertex="1" parent="twupwqkX-t9JmAbM2OeW-1">
                    <mxGeometry x="-20" y="480" width="120" height="60" as="geometry"/>
                </mxCell>
                <mxCell id="mJ6V3OqGCH_RpjbTWv6H-45" value="Inventory" style="rounded=0;whiteSpace=wrap;html=1;" vertex="1" parent="twupwqkX-t9JmAbM2OeW-1">
                    <mxGeometry x="135" y="480" width="120" height="60" as="geometry"/>
                </mxCell>
                <mxCell id="mJ6V3OqGCH_RpjbTWv6H-47" value="" style="edgeStyle=none;html=1;" edge="1" parent="twupwqkX-t9JmAbM2OeW-1" source="mJ6V3OqGCH_RpjbTWv6H-50" target="mJ6V3OqGCH_RpjbTWv6H-51">
                    <mxGeometry relative="1" as="geometry"/>
                </mxCell>
                <mxCell id="mJ6V3OqGCH_RpjbTWv6H-48" style="edgeStyle=none;html=1;entryX=0.5;entryY=0;entryDx=0;entryDy=0;" edge="1" parent="twupwqkX-t9JmAbM2OeW-1" source="mJ6V3OqGCH_RpjbTWv6H-50" target="mJ6V3OqGCH_RpjbTWv6H-52">
                    <mxGeometry relative="1" as="geometry"/>
                </mxCell>
                <mxCell id="mJ6V3OqGCH_RpjbTWv6H-49" style="edgeStyle=none;html=1;entryX=0.5;entryY=0;entryDx=0;entryDy=0;" edge="1" parent="twupwqkX-t9JmAbM2OeW-1" source="mJ6V3OqGCH_RpjbTWv6H-50" target="mJ6V3OqGCH_RpjbTWv6H-53">
                    <mxGeometry relative="1" as="geometry"/>
                </mxCell>
                <mxCell id="mJ6V3OqGCH_RpjbTWv6H-50" value="list 2" style="rounded=0;whiteSpace=wrap;html=1;" vertex="1" parent="twupwqkX-t9JmAbM2OeW-1">
                    <mxGeometry x="375" y="490" width="120" height="60" as="geometry"/>
                </mxCell>
                <mxCell id="mJ6V3OqGCH_RpjbTWv6H-51" value="2012&lt;span style=&quot;white-space: pre&quot;&gt;&#9;&lt;/span&gt;" style="rounded=0;whiteSpace=wrap;html=1;" vertex="1" parent="twupwqkX-t9JmAbM2OeW-1">
                    <mxGeometry x="200" y="590" width="120" height="60" as="geometry"/>
                </mxCell>
                <mxCell id="mJ6V3OqGCH_RpjbTWv6H-52" value="Subaru (*)" style="rounded=0;whiteSpace=wrap;html=1;fillColor=#60a917;fontColor=#ffffff;strokeColor=#2D7600;" vertex="1" parent="twupwqkX-t9JmAbM2OeW-1">
                    <mxGeometry x="340" y="600" width="120" height="60" as="geometry"/>
                </mxCell>
                <mxCell id="mJ6V3OqGCH_RpjbTWv6H-53" value="3" style="rounded=0;whiteSpace=wrap;html=1;" vertex="1" parent="twupwqkX-t9JmAbM2OeW-1">
                    <mxGeometry x="495" y="600" width="120" height="60" as="geometry"/>
                </mxCell>
                <mxCell id="mJ6V3OqGCH_RpjbTWv6H-55" value="" style="edgeStyle=none;html=1;" edge="1" parent="twupwqkX-t9JmAbM2OeW-1" source="mJ6V3OqGCH_RpjbTWv6H-58" target="mJ6V3OqGCH_RpjbTWv6H-59">
                    <mxGeometry relative="1" as="geometry"/>
                </mxCell>
                <mxCell id="mJ6V3OqGCH_RpjbTWv6H-56" style="edgeStyle=none;html=1;entryX=0.5;entryY=0;entryDx=0;entryDy=0;" edge="1" parent="twupwqkX-t9JmAbM2OeW-1" source="mJ6V3OqGCH_RpjbTWv6H-58" target="mJ6V3OqGCH_RpjbTWv6H-60">
                    <mxGeometry relative="1" as="geometry"/>
                </mxCell>
                <mxCell id="mJ6V3OqGCH_RpjbTWv6H-57" style="edgeStyle=none;html=1;entryX=0.5;entryY=0;entryDx=0;entryDy=0;" edge="1" parent="twupwqkX-t9JmAbM2OeW-1" source="mJ6V3OqGCH_RpjbTWv6H-58" target="mJ6V3OqGCH_RpjbTWv6H-61">
                    <mxGeometry relative="1" as="geometry"/>
                </mxCell>
                <mxCell id="mJ6V3OqGCH_RpjbTWv6H-58" value="list 3" style="rounded=0;whiteSpace=wrap;html=1;" vertex="1" parent="twupwqkX-t9JmAbM2OeW-1">
                    <mxGeometry x="850" y="510" width="120" height="60" as="geometry"/>
                </mxCell>
                <mxCell id="mJ6V3OqGCH_RpjbTWv6H-59" value="2103" style="rounded=0;whiteSpace=wrap;html=1;" vertex="1" parent="twupwqkX-t9JmAbM2OeW-1">
                    <mxGeometry x="675" y="610" width="120" height="60" as="geometry"/>
                </mxCell>
                <mxCell id="mJ6V3OqGCH_RpjbTWv6H-60" value="camary" style="rounded=0;whiteSpace=wrap;html=1;" vertex="1" parent="twupwqkX-t9JmAbM2OeW-1">
                    <mxGeometry x="815" y="620" width="120" height="60" as="geometry"/>
                </mxCell>
                <mxCell id="mJ6V3OqGCH_RpjbTWv6H-61" value="5" style="rounded=0;whiteSpace=wrap;html=1;" vertex="1" parent="twupwqkX-t9JmAbM2OeW-1">
                    <mxGeometry x="970" y="620" width="120" height="60" as="geometry"/>
                </mxCell>
                <mxCell id="mJ6V3OqGCH_RpjbTWv6H-63" value="Intent: Identify the branch of html-list1-table&lt;br&gt;Step 1: Get Simillarity in between table and table`,table 2`" style="text;html=1;strokeColor=none;fillColor=none;align=center;verticalAlign=middle;whiteSpace=wrap;rounded=0;fontSize=20;" vertex="1" parent="twupwqkX-t9JmAbM2OeW-1">
                    <mxGeometry x="1230" y="600" width="455" height="30" as="geometry"/>
                </mxCell>
                <mxCell id="mJ6V3OqGCH_RpjbTWv6H-67" style="edgeStyle=none;html=1;entryX=0.5;entryY=0;entryDx=0;entryDy=0;fontSize=20;" edge="1" parent="twupwqkX-t9JmAbM2OeW-1" source="mJ6V3OqGCH_RpjbTWv6H-65" target="mJ6V3OqGCH_RpjbTWv6H-27">
                    <mxGeometry relative="1" as="geometry"/>
                </mxCell>
                <mxCell id="mJ6V3OqGCH_RpjbTWv6H-68" style="edgeStyle=none;html=1;fontSize=20;entryX=0.5;entryY=0;entryDx=0;entryDy=0;" edge="1" parent="twupwqkX-t9JmAbM2OeW-1" source="mJ6V3OqGCH_RpjbTWv6H-65" target="mJ6V3OqGCH_RpjbTWv6H-69">
                    <mxGeometry relative="1" as="geometry">
                        <mxPoint x="1540.0000000000005" y="410" as="targetPoint"/>
                    </mxGeometry>
                </mxCell>
                <mxCell id="mJ6V3OqGCH_RpjbTWv6H-65" value="list 4" style="rounded=0;whiteSpace=wrap;html=1;" vertex="1" parent="twupwqkX-t9JmAbM2OeW-1">
                    <mxGeometry x="1320" y="310" width="120" height="60" as="geometry"/>
                </mxCell>
                <mxCell id="mJ6V3OqGCH_RpjbTWv6H-69" value="item5=&quot;Year:2012&quot;" style="rounded=0;whiteSpace=wrap;html=1;" vertex="1" parent="twupwqkX-t9JmAbM2OeW-1">
                    <mxGeometry x="1490" y="430" width="120" height="60" as="geometry"/>
                </mxCell>
                <mxCell id="mJ6V3OqGCH_RpjbTWv6H-79" value="" style="edgeStyle=none;html=1;fontSize=20;" edge="1" parent="twupwqkX-t9JmAbM2OeW-1" source="mJ6V3OqGCH_RpjbTWv6H-71" target="mJ6V3OqGCH_RpjbTWv6H-72">
                    <mxGeometry relative="1" as="geometry"/>
                </mxCell>
                <mxCell id="mJ6V3OqGCH_RpjbTWv6H-80" style="edgeStyle=none;html=1;entryX=0.5;entryY=0;entryDx=0;entryDy=0;fontSize=20;" edge="1" parent="twupwqkX-t9JmAbM2OeW-1" source="mJ6V3OqGCH_RpjbTWv6H-71" target="mJ6V3OqGCH_RpjbTWv6H-75">
                    <mxGeometry relative="1" as="geometry"/>
                </mxCell>
                <mxCell id="mJ6V3OqGCH_RpjbTWv6H-71" value="list 2" style="rounded=0;whiteSpace=wrap;html=1;" vertex="1" parent="twupwqkX-t9JmAbM2OeW-1">
                    <mxGeometry x="3620" y="110" width="120" height="60" as="geometry"/>
                </mxCell>
                <mxCell id="mJ6V3OqGCH_RpjbTWv6H-72" value="item 2=Car Buys" style="rounded=0;whiteSpace=wrap;html=1;" vertex="1" parent="twupwqkX-t9JmAbM2OeW-1">
                    <mxGeometry x="3560" y="240" width="120" height="60" as="geometry"/>
                </mxCell>
                <mxCell id="mJ6V3OqGCH_RpjbTWv6H-87" style="edgeStyle=none;html=1;entryX=0.5;entryY=0;entryDx=0;entryDy=0;fontSize=20;" edge="1" parent="twupwqkX-t9JmAbM2OeW-1" source="mJ6V3OqGCH_RpjbTWv6H-75" target="mJ6V3OqGCH_RpjbTWv6H-86">
                    <mxGeometry relative="1" as="geometry"/>
                </mxCell>
                <mxCell id="mJ6V3OqGCH_RpjbTWv6H-88" style="edgeStyle=none;html=1;entryX=0.5;entryY=0;entryDx=0;entryDy=0;fontSize=20;" edge="1" parent="twupwqkX-t9JmAbM2OeW-1" source="mJ6V3OqGCH_RpjbTWv6H-75" target="mJ6V3OqGCH_RpjbTWv6H-78">
                    <mxGeometry relative="1" as="geometry"/>
                </mxCell>
                <mxCell id="mJ6V3OqGCH_RpjbTWv6H-75" value="List3" style="rounded=0;whiteSpace=wrap;html=1;" vertex="1" parent="twupwqkX-t9JmAbM2OeW-1">
                    <mxGeometry x="3750" y="240" width="120" height="60" as="geometry"/>
                </mxCell>
                <mxCell id="mJ6V3OqGCH_RpjbTWv6H-78" value="table2&amp;nbsp;" style="rounded=0;whiteSpace=wrap;html=1;" vertex="1" parent="twupwqkX-t9JmAbM2OeW-1">
                    <mxGeometry x="3910" y="400" width="120" height="60" as="geometry"/>
                </mxCell>
                <mxCell id="mJ6V3OqGCH_RpjbTWv6H-82" style="edgeStyle=none;html=1;entryX=0.5;entryY=0;entryDx=0;entryDy=0;" edge="1" parent="twupwqkX-t9JmAbM2OeW-1" target="mJ6V3OqGCH_RpjbTWv6H-84">
                    <mxGeometry relative="1" as="geometry">
                        <mxPoint x="3693.333333333333" y="450" as="sourcePoint"/>
                    </mxGeometry>
                </mxCell>
                <mxCell id="mJ6V3OqGCH_RpjbTWv6H-83" style="edgeStyle=none;html=1;entryX=0.25;entryY=0;entryDx=0;entryDy=0;" edge="1" parent="twupwqkX-t9JmAbM2OeW-1" target="mJ6V3OqGCH_RpjbTWv6H-85">
                    <mxGeometry relative="1" as="geometry">
                        <mxPoint x="3734.545454545454" y="450" as="sourcePoint"/>
                    </mxGeometry>
                </mxCell>
                <mxCell id="mJ6V3OqGCH_RpjbTWv6H-84" value="item 3=Search Name" style="rounded=0;whiteSpace=wrap;html=1;fillColor=#008a00;fontColor=#ffffff;strokeColor=#005700;" vertex="1" parent="twupwqkX-t9JmAbM2OeW-1">
                    <mxGeometry x="3600" y="510" width="120" height="60" as="geometry"/>
                </mxCell>
                <mxCell id="mJ6V3OqGCH_RpjbTWv6H-85" value="item4 = input" style="rounded=0;whiteSpace=wrap;html=1;" vertex="1" parent="twupwqkX-t9JmAbM2OeW-1">
                    <mxGeometry x="3770" y="530" width="120" height="60" as="geometry"/>
                </mxCell>
                <mxCell id="mJ6V3OqGCH_RpjbTWv6H-86" value="list4" style="rounded=0;whiteSpace=wrap;html=1;" vertex="1" parent="twupwqkX-t9JmAbM2OeW-1">
                    <mxGeometry x="3670" y="390" width="120" height="60" as="geometry"/>
                </mxCell>
                <mxCell id="mJ6V3OqGCH_RpjbTWv6H-89" value="" style="edgeStyle=none;html=1;fontSize=20;" edge="1" parent="twupwqkX-t9JmAbM2OeW-1" source="mJ6V3OqGCH_RpjbTWv6H-91" target="mJ6V3OqGCH_RpjbTWv6H-92">
                    <mxGeometry relative="1" as="geometry"/>
                </mxCell>
                <mxCell id="mJ6V3OqGCH_RpjbTWv6H-91" value="list 2" style="rounded=0;whiteSpace=wrap;html=1;" vertex="1" parent="twupwqkX-t9JmAbM2OeW-1">
                    <mxGeometry x="4620" y="140" width="120" height="60" as="geometry"/>
                </mxCell>
                <mxCell id="mJ6V3OqGCH_RpjbTWv6H-92" value="item 2=Car Buys" style="rounded=0;whiteSpace=wrap;html=1;" vertex="1" parent="twupwqkX-t9JmAbM2OeW-1">
                    <mxGeometry x="4420" y="320" width="120" height="60" as="geometry"/>
                </mxCell>
                <mxCell id="mJ6V3OqGCH_RpjbTWv6H-93" style="edgeStyle=none;html=1;entryX=0.5;entryY=0;entryDx=0;entryDy=0;fontSize=20;exitX=0.75;exitY=1;exitDx=0;exitDy=0;" edge="1" parent="twupwqkX-t9JmAbM2OeW-1" source="mJ6V3OqGCH_RpjbTWv6H-91" target="mJ6V3OqGCH_RpjbTWv6H-101">
                    <mxGeometry relative="1" as="geometry">
                        <mxPoint x="4790" y="330" as="sourcePoint"/>
                    </mxGeometry>
                </mxCell>
                <mxCell id="mJ6V3OqGCH_RpjbTWv6H-94" style="edgeStyle=none;html=1;entryX=0.5;entryY=0;entryDx=0;entryDy=0;fontSize=20;exitX=1;exitY=0.75;exitDx=0;exitDy=0;" edge="1" parent="twupwqkX-t9JmAbM2OeW-1" source="mJ6V3OqGCH_RpjbTWv6H-91" target="mJ6V3OqGCH_RpjbTWv6H-96">
                    <mxGeometry relative="1" as="geometry">
                        <mxPoint x="4846.923076923077" y="330" as="sourcePoint"/>
                    </mxGeometry>
                </mxCell>
                <mxCell id="mJ6V3OqGCH_RpjbTWv6H-96" value="table2&amp;nbsp;" style="rounded=0;whiteSpace=wrap;html=1;" vertex="1" parent="twupwqkX-t9JmAbM2OeW-1">
                    <mxGeometry x="4890" y="300" width="120" height="60" as="geometry"/>
                </mxCell>
                <mxCell id="mJ6V3OqGCH_RpjbTWv6H-97" style="edgeStyle=none;html=1;entryX=0.5;entryY=0;entryDx=0;entryDy=0;" edge="1" parent="twupwqkX-t9JmAbM2OeW-1" target="mJ6V3OqGCH_RpjbTWv6H-99">
                    <mxGeometry relative="1" as="geometry">
                        <mxPoint x="4673.333333333333" y="380" as="sourcePoint"/>
                    </mxGeometry>
                </mxCell>
                <mxCell id="mJ6V3OqGCH_RpjbTWv6H-98" style="edgeStyle=none;html=1;entryX=0.25;entryY=0;entryDx=0;entryDy=0;" edge="1" parent="twupwqkX-t9JmAbM2OeW-1" target="mJ6V3OqGCH_RpjbTWv6H-100">
                    <mxGeometry relative="1" as="geometry">
                        <mxPoint x="4714.545454545454" y="380" as="sourcePoint"/>
                    </mxGeometry>
                </mxCell>
                <mxCell id="mJ6V3OqGCH_RpjbTWv6H-99" value="item 3=Search Name" style="rounded=0;whiteSpace=wrap;html=1;fillColor=#60a917;fontColor=#ffffff;strokeColor=#2D7600;" vertex="1" parent="twupwqkX-t9JmAbM2OeW-1">
                    <mxGeometry x="4560" y="470" width="120" height="60" as="geometry"/>
                </mxCell>
                <mxCell id="mJ6V3OqGCH_RpjbTWv6H-100" value="item4 = input" style="rounded=0;whiteSpace=wrap;html=1;" vertex="1" parent="twupwqkX-t9JmAbM2OeW-1">
                    <mxGeometry x="4750" y="460" width="120" height="60" as="geometry"/>
                </mxCell>
                <mxCell id="mJ6V3OqGCH_RpjbTWv6H-101" value="list4" style="rounded=0;whiteSpace=wrap;html=1;" vertex="1" parent="twupwqkX-t9JmAbM2OeW-1">
                    <mxGeometry x="4650" y="320" width="120" height="60" as="geometry"/>
                </mxCell>
            </root>
        </mxGraphModel>
    </diagram>
</mxfile>